<svg width="25" height="20" viewBox="0 0 25 20" fill="none" xmlns="http://www.w3.org/2000/svg">
<g clip-path="url(#clip0_471_7479)">
<path fill-rule="evenodd" clip-rule="evenodd" d="M2.52574 8.60987C9.00397 5.78741 13.3238 3.92667 15.4852 3.02765C21.6566 0.460774 22.9389 0.0148807 23.7748 0.000156987C23.9586 -0.00308132 24.3696 0.0424773 24.6359 0.25852C24.8607 0.440943 24.9225 0.687369 24.9521 0.860326C24.9817 1.03328 25.0186 1.42728 24.9893 1.73514C24.6549 5.249 23.2078 13.7762 22.4716 17.7118C22.1601 19.3771 21.5468 19.9354 20.953 19.9901C19.6625 20.1088 18.6825 19.1372 17.4326 18.3179C15.4768 17.0358 14.3719 16.2377 12.4734 14.9867C10.2793 13.5408 11.7016 12.7462 12.952 11.4475C13.2792 11.1076 18.9651 5.93584 19.0752 5.46668C19.089 5.40801 19.1017 5.18929 18.9718 5.0738C18.8419 4.95831 18.6501 4.9978 18.5117 5.02921C18.3155 5.07373 15.191 7.1389 9.13824 11.2247C8.25136 11.8337 7.44806 12.1304 6.72832 12.1149C5.93488 12.0977 4.4086 11.6663 3.27397 11.2974C1.8823 10.8451 0.776232 10.6059 0.872546 9.83761C0.922712 9.43745 1.47378 9.0282 2.52574 8.60987Z" fill="#F9F9F9"/>
</g>
<defs>
<clipPath id="clip0_471_7479">
<rect width="25" height="20" fill="white"/>
</clipPath>
</defs>
</svg>
