<svg width="20" height="20" viewBox="0 0 20 20" fill="none" xmlns="http://www.w3.org/2000/svg">
<g clip-path="url(#clip0_471_7465)">
<path fill-rule="evenodd" clip-rule="evenodd" d="M19.0876 0.253188C19.1677 0.327795 19.2324 0.417467 19.2779 0.517078C19.3233 0.61669 19.3487 0.724287 19.3526 0.83372C19.3565 0.943153 19.3387 1.05228 19.3004 1.15485C19.2621 1.25742 19.2039 1.35144 19.1292 1.43152L12.3492 8.70236L19.8326 18.6357C19.9256 18.7594 19.9824 18.9067 19.9964 19.0609C20.0105 19.215 19.9813 19.3701 19.9122 19.5086C19.843 19.6472 19.7366 19.7637 19.605 19.8452C19.4733 19.9266 19.3216 19.9698 19.1667 19.9699H14.6017C14.4726 19.9699 14.3453 19.94 14.2297 19.8824C14.1142 19.8249 14.0136 19.7413 13.9359 19.6382L8.66923 12.649L2.09089 19.7049C2.01626 19.7849 1.92659 19.8495 1.827 19.8949C1.72741 19.9403 1.61986 19.9656 1.51048 19.9694C1.4011 19.9733 1.29203 19.9555 1.18951 19.9172C1.087 19.8789 0.993027 19.8207 0.912975 19.7461C0.832924 19.6715 0.768356 19.5818 0.72296 19.4822C0.677563 19.3826 0.652226 19.2751 0.648396 19.1657C0.644565 19.0563 0.662316 18.9472 0.700635 18.8447C0.738954 18.7422 0.797091 18.6482 0.871725 18.5682L7.65173 11.2974L0.168392 1.36402C0.075381 1.24033 0.0186516 1.09318 0.00456052 0.939064C-0.00953058 0.784947 0.0195733 0.62995 0.0886111 0.491442C0.157649 0.352934 0.263893 0.236387 0.395438 0.15486C0.526983 0.0733334 0.678632 0.0300484 0.833392 0.0298552H5.39923C5.52817 0.0299191 5.65535 0.059907 5.77074 0.117459C5.88614 0.175011 5.9866 0.258557 6.06423 0.361522L11.3309 7.35069L17.9084 0.294855C17.983 0.214703 18.0727 0.15004 18.1723 0.104563C18.2719 0.0590862 18.3795 0.033687 18.4889 0.0298174C18.5984 0.0259478 18.7075 0.0436836 18.8101 0.082011C18.9126 0.120338 19.0066 0.178506 19.0867 0.253188H19.0876ZM10.6292 9.18985C10.6057 9.16268 10.584 9.13401 10.5642 9.10402L4.98339 1.69569H2.50423L15.0167 18.304H17.4959L10.6292 9.18985Z" fill="#97979C"/>
</g>
<defs>
<clipPath id="clip0_471_7465">
<rect width="20" height="20" fill="white"/>
</clipPath>
</defs>
</svg>
