<svg width="66" height="65" viewBox="0 0 66 65" fill="none" xmlns="http://www.w3.org/2000/svg">
<circle cx="61.2014" cy="3.86895" r="3.86895" transform="rotate(90 61.2014 3.86895)" fill="#4253D6"/>
<circle cx="61.2014" cy="17.7972" r="3.48206" transform="rotate(90 61.2014 17.7972)" stroke="#4253D6" stroke-width="0.773791"/>
<circle cx="61.2014" cy="31.7254" r="3.48206" transform="rotate(90 61.2014 31.7254)" stroke="#323235" stroke-width="0.773791"/>
<circle cx="61.2014" cy="47.2012" r="3.48206" transform="rotate(90 61.2014 47.2012)" stroke="#CC8931" stroke-width="0.773791"/>
<circle cx="61.2014" cy="61.1295" r="3.48206" transform="rotate(90 61.2014 61.1295)" stroke="#323235" stroke-width="0.773791"/>
<circle cx="47.2734" cy="3.86895" r="3.48206" transform="rotate(90 47.2734 3.86895)" stroke="#323235" stroke-width="0.773791"/>
<circle cx="47.2734" cy="17.7972" r="3.48206" transform="rotate(90 47.2734 17.7972)" stroke="#323235" stroke-width="0.773791"/>
<circle cx="47.2734" cy="31.7254" r="3.48206" transform="rotate(90 47.2734 31.7254)" stroke="#4253D6" stroke-width="0.773791"/>
<circle cx="47.2734" cy="47.2012" r="3.48206" transform="rotate(90 47.2734 47.2012)" stroke="#323235" stroke-width="0.773791"/>
<circle cx="47.2734" cy="61.1295" r="3.48206" transform="rotate(90 47.2734 61.1295)" stroke="#323235" stroke-width="0.773791"/>
<circle cx="31.7973" cy="3.86895" r="3.48206" transform="rotate(90 31.7973 3.86895)" stroke="#47BF4B" stroke-width="0.773791"/>
<circle cx="31.7973" cy="17.7972" r="3.48206" transform="rotate(90 31.7973 17.7972)" stroke="#323235" stroke-width="0.773791"/>
<circle cx="31.7973" cy="31.7254" r="3.86895" transform="rotate(90 31.7973 31.7254)" fill="#47BF4B"/>
<circle cx="31.7973" cy="47.2012" r="3.48206" transform="rotate(90 31.7973 47.2012)" stroke="#D4CD44" stroke-width="0.773791"/>
<circle cx="31.7973" cy="61.1295" r="3.48206" transform="rotate(90 31.7973 61.1295)" stroke="#323235" stroke-width="0.773791"/>
<circle cx="17.8692" cy="3.86895" r="3.48206" transform="rotate(90 17.8692 3.86895)" stroke="#323235" stroke-width="0.773791"/>
<circle cx="17.8692" cy="17.7972" r="3.86895" transform="rotate(90 17.8692 17.7972)" fill="#CC8931"/>
<circle cx="17.8692" cy="31.7254" r="3.48206" transform="rotate(90 17.8692 31.7254)" stroke="#323235" stroke-width="0.773791"/>
<circle cx="17.8692" cy="47.2012" r="3.48206" transform="rotate(90 17.8692 47.2012)" stroke="#323235" stroke-width="0.773791"/>
<circle cx="17.8692" cy="61.1295" r="3.48206" transform="rotate(90 17.8692 61.1295)" stroke="#323235" stroke-width="0.773791"/>
<circle cx="3.8692" cy="3.86895" r="3.48206" transform="rotate(90 3.8692 3.86895)" stroke="#323235" stroke-width="0.773791"/>
<circle cx="3.8692" cy="17.7972" r="3.48206" transform="rotate(90 3.8692 17.7972)" stroke="#323235" stroke-width="0.773791"/>
<circle cx="3.8692" cy="31.7254" r="3.48206" transform="rotate(90 3.8692 31.7254)" stroke="#323235" stroke-width="0.773791"/>
<circle cx="3.86933" cy="47.2015" r="3.86895" transform="rotate(90 3.86933 47.2015)" fill="white" fill-opacity="0.15"/>
<circle cx="3.86933" cy="61.1297" r="3.48206" transform="rotate(90 3.86933 61.1297)" stroke="#D4CD44" stroke-width="0.773791"/>
</svg>
