<svg width="183" height="52" viewBox="0 0 183 52" fill="none" xmlns="http://www.w3.org/2000/svg">
<circle cx="3.86895" cy="3.86895" r="3.86895" fill="#47BF4B"/>
<circle cx="17.7972" cy="3.86895" r="3.48206" stroke="#323235" stroke-width="0.773791"/>
<circle cx="31.7254" cy="3.86895" r="3.48206" stroke="#323235" stroke-width="0.773791"/>
<circle cx="47.2012" cy="3.86895" r="3.48206" stroke="#323235" stroke-width="0.773791"/>
<circle cx="61.1295" cy="3.86895" r="3.48206" stroke="#323235" stroke-width="0.773791"/>
<circle cx="76.6053" cy="3.86895" r="3.48206" stroke="#323235" stroke-width="0.773791"/>
<circle cx="3.86895" cy="17.7969" r="3.48206" stroke="#323235" stroke-width="0.773791"/>
<circle cx="17.7972" cy="17.7969" r="3.48206" stroke="#323235" stroke-width="0.773791"/>
<circle cx="31.7254" cy="17.7969" r="3.48206" stroke="#323235" stroke-width="0.773791"/>
<circle cx="47.2012" cy="17.7969" r="3.48206" stroke="#323235" stroke-width="0.773791"/>
<circle cx="61.1295" cy="17.7969" r="3.48206" stroke="#323235" stroke-width="0.773791"/>
<circle cx="3.86895" cy="33.273" r="3.48206" stroke="#323235" stroke-width="0.773791"/>
<circle cx="17.7972" cy="33.273" r="3.48206" stroke="#323235" stroke-width="0.773791"/>
<circle cx="31.7254" cy="33.273" r="3.86895" fill="white" fill-opacity="0.15"/>
<circle cx="47.2012" cy="33.273" r="3.48206" stroke="#CC8931" stroke-width="0.773791"/>
<circle cx="61.1295" cy="33.273" r="3.48206" stroke="#323235" stroke-width="0.773791"/>
<circle cx="76.6053" cy="33.273" r="3.48206" stroke="#323235" stroke-width="0.773791"/>
<circle cx="3.86895" cy="47.201" r="3.48206" stroke="#323235" stroke-width="0.773791"/>
<circle cx="17.7972" cy="47.201" r="3.48206" stroke="#323235" stroke-width="0.773791"/>
<circle cx="31.7254" cy="47.201" r="3.48206" stroke="#323235" stroke-width="0.773791"/>
<circle cx="47.2012" cy="47.201" r="3.48206" stroke="#323235" stroke-width="0.773791"/>
<circle cx="61.1295" cy="47.201" r="3.48206" stroke="#CC8931" stroke-width="0.773791"/>
<circle cx="76.6053" cy="47.201" r="3.48206" stroke="#323235" stroke-width="0.773791"/>
<circle cx="90.5335" cy="3.86895" r="3.48206" stroke="#323235" stroke-width="0.773791"/>
<circle cx="106.009" cy="3.86895" r="3.86895" fill="white" fill-opacity="0.1"/>
<circle cx="119.938" cy="3.86895" r="3.48206" stroke="#4354D6" stroke-width="0.773791"/>
<circle cx="133.866" cy="3.86895" r="3.48206" stroke="#323235" stroke-width="0.773791"/>
<circle cx="149.342" cy="3.86895" r="3.48206" stroke="#323235" stroke-width="0.773791"/>
<circle cx="163.27" cy="3.86895" r="3.48206" stroke="#323235" stroke-width="0.773791"/>
<circle cx="178.746" cy="3.86895" r="3.48206" stroke="#323235" stroke-width="0.773791"/>
<circle cx="178.746" cy="17.7969" r="3.48206" stroke="#323235" stroke-width="0.773791"/>
<circle cx="90.5335" cy="33.273" r="3.48206" stroke="#323235" stroke-width="0.773791"/>
<circle cx="106.009" cy="33.273" r="3.48206" stroke="#323235" stroke-width="0.773791"/>
<circle cx="119.938" cy="33.273" r="3.86895" fill="#4354D6"/>
<circle cx="133.866" cy="33.273" r="3.48206" stroke="#323235" stroke-width="0.773791"/>
<circle cx="149.342" cy="33.273" r="3.48206" stroke="#323235" stroke-width="0.773791"/>
<circle cx="163.27" cy="33.273" r="3.86895" fill="white" fill-opacity="0.15"/>
<circle cx="178.746" cy="33.273" r="3.48206" stroke="#323235" stroke-width="0.773791"/>
<circle cx="90.5335" cy="47.201" r="3.48206" stroke="#323235" stroke-width="0.773791"/>
<circle cx="106.009" cy="47.201" r="3.48206" stroke="#323235" stroke-width="0.773791"/>
<circle cx="119.938" cy="47.201" r="3.48206" stroke="#323235" stroke-width="0.773791"/>
<circle cx="133.866" cy="47.201" r="3.48206" stroke="#323235" stroke-width="0.773791"/>
<circle cx="149.342" cy="47.201" r="3.48206" stroke="#323235" stroke-width="0.773791"/>
<circle cx="163.27" cy="47.201" r="3.48206" stroke="#323235" stroke-width="0.773791"/>
<circle cx="178.746" cy="47.201" r="3.48206" stroke="#323235" stroke-width="0.773791"/>
<path d="M73.9496 22.8328V13.7949H74.9277V17.7072H77.9733V13.7949H78.9514V22.8328H77.9733V18.611H74.9277V22.8328H73.9496ZM83.8741 22.9566C83.3458 22.9566 82.8878 22.8534 82.4998 22.6471C82.1202 22.4407 81.8271 22.1477 81.6208 21.768C81.4145 21.3801 81.3113 20.922 81.3113 20.3938V16.2339C81.3113 15.7056 81.4145 15.2517 81.6208 14.872C81.8271 14.4841 82.1202 14.1869 82.4998 13.9806C82.8878 13.7743 83.3458 13.6711 83.8741 13.6711C84.4023 13.6711 84.8563 13.7743 85.236 13.9806C85.6239 14.1869 85.921 14.4841 86.1274 14.872C86.3337 15.2517 86.4369 15.7056 86.4369 16.2339V20.3938C86.4369 20.922 86.3337 21.3801 86.1274 21.768C85.921 22.1477 85.6239 22.4407 85.236 22.6471C84.8563 22.8534 84.4023 22.9566 83.8741 22.9566ZM83.8741 22.0775C84.3858 22.0775 84.7779 21.9331 85.0502 21.6442C85.3226 21.3471 85.4588 20.9303 85.4588 20.3938V16.2339C85.4588 15.6974 85.3185 15.2847 85.0379 14.9958C84.7655 14.6987 84.3776 14.5501 83.8741 14.5501C83.3706 14.5501 82.9785 14.6987 82.6979 14.9958C82.4255 15.2847 82.2894 15.6974 82.2894 16.2339V20.3938C82.2894 20.9303 82.4255 21.3471 82.6979 21.6442C82.9785 21.9331 83.3706 22.0775 83.8741 22.0775ZM89.0196 22.8328V13.7949H90.01V21.9414H94.1699V22.8328H89.0196ZM96.2079 22.8328V13.7949H98.4488C99.0266 13.7949 99.5259 13.9063 99.9469 14.1292C100.376 14.352 100.706 14.6698 100.937 15.0825C101.168 15.4869 101.284 15.9615 101.284 16.5062V20.109C101.284 20.662 101.168 21.1449 100.937 21.5576C100.706 21.962 100.376 22.2756 99.9469 22.4985C99.5259 22.7213 99.0266 22.8328 98.4488 22.8328H96.2079ZM97.186 21.9537H98.4488C99.0266 21.9537 99.4805 21.7887 99.8107 21.4585C100.141 21.1284 100.306 20.6785 100.306 20.109V16.5062C100.306 15.945 100.137 15.4993 99.7983 15.1691C99.4682 14.839 99.0183 14.6739 98.4488 14.6739H97.186V21.9537ZM103.731 22.8328V13.7949H108.831V14.6863H104.709V17.67H108.398V18.5491H104.709V21.9414H108.831V22.8328H103.731ZM111.055 22.8328V13.7949H113.779C114.315 13.7949 114.782 13.9022 115.178 14.1168C115.582 14.3314 115.892 14.6326 116.106 15.0206C116.329 15.4002 116.441 15.8501 116.441 16.3701C116.441 16.9891 116.276 17.5173 115.945 17.9548C115.615 18.3922 115.165 18.6852 114.596 18.8338L116.552 22.8328H115.388L113.581 18.9329H112.033V22.8328H111.055ZM112.033 18.0415H113.779C114.282 18.0415 114.683 17.8888 114.98 17.5834C115.285 17.278 115.438 16.8694 115.438 16.3577C115.438 15.8459 115.285 15.4415 114.98 15.1444C114.683 14.839 114.282 14.6863 113.779 14.6863H112.033V18.0415ZM128.477 22.9566C127.941 22.9566 127.474 22.8534 127.078 22.6471C126.69 22.4407 126.389 22.1436 126.175 21.7556C125.96 21.3677 125.853 20.9138 125.853 20.3938V16.2339C125.853 15.7056 125.96 15.2517 126.175 14.872C126.389 14.4841 126.69 14.1869 127.078 13.9806C127.474 13.7743 127.941 13.6711 128.477 13.6711C129.006 13.6711 129.464 13.7784 129.852 13.993C130.248 14.1993 130.553 14.4965 130.768 14.8844C130.982 15.2723 131.09 15.7345 131.09 16.271H130.112C130.112 15.7263 129.967 15.3053 129.678 15.0082C129.389 14.7028 128.989 14.5501 128.477 14.5501C127.966 14.5501 127.561 14.6987 127.264 14.9958C126.975 15.2847 126.831 15.6974 126.831 16.2339V20.3938C126.831 20.922 126.975 21.3347 127.264 21.6318C127.561 21.929 127.966 22.0775 128.477 22.0775C128.989 22.0775 129.389 21.929 129.678 21.6318C129.967 21.3265 130.112 20.9014 130.112 20.3566H131.09C131.09 20.8849 130.982 21.3471 130.768 21.7433C130.553 22.1312 130.248 22.4325 129.852 22.6471C129.464 22.8534 129.006 22.9566 128.477 22.9566ZM135.839 22.9566C135.311 22.9566 134.853 22.8534 134.465 22.6471C134.085 22.4407 133.792 22.1477 133.586 21.768C133.379 21.3801 133.276 20.922 133.276 20.3938V16.2339C133.276 15.7056 133.379 15.2517 133.586 14.872C133.792 14.4841 134.085 14.1869 134.465 13.9806C134.853 13.7743 135.311 13.6711 135.839 13.6711C136.367 13.6711 136.821 13.7743 137.201 13.9806C137.589 14.1869 137.886 14.4841 138.092 14.872C138.299 15.2517 138.402 15.7056 138.402 16.2339V20.3938C138.402 20.922 138.299 21.3801 138.092 21.768C137.886 22.1477 137.589 22.4407 137.201 22.6471C136.821 22.8534 136.367 22.9566 135.839 22.9566ZM135.839 22.0775C136.351 22.0775 136.743 21.9331 137.015 21.6442C137.288 21.3471 137.424 20.9303 137.424 20.3938V16.2339C137.424 15.6974 137.283 15.2847 137.003 14.9958C136.73 14.6987 136.342 14.5501 135.839 14.5501C135.335 14.5501 134.943 14.6987 134.663 14.9958C134.39 15.2847 134.254 15.6974 134.254 16.2339V20.3938C134.254 20.9303 134.39 21.3471 134.663 21.6442C134.943 21.9331 135.335 22.0775 135.839 22.0775ZM143.263 22.9566C142.454 22.9566 141.826 22.7255 141.381 22.2633C140.943 21.801 140.724 21.1779 140.724 20.3938V13.7949H141.703V20.3938C141.703 20.9138 141.835 21.3265 142.099 21.6318C142.363 21.929 142.751 22.0775 143.263 22.0775C143.774 22.0775 144.162 21.929 144.426 21.6318C144.69 21.3265 144.822 20.9138 144.822 20.3938V13.7949H145.801V20.3938C145.801 21.1861 145.582 21.8134 145.144 22.2756C144.707 22.7296 144.08 22.9566 143.263 22.9566ZM148.148 22.8328V13.7949H149.46L152.37 21.6937C152.362 21.5039 152.349 21.2728 152.333 21.0004C152.316 20.7198 152.3 20.435 152.283 20.1462C152.275 19.8573 152.271 19.5973 152.271 19.3662V13.7949H153.224V22.8328H151.899L149.015 14.9339C149.031 15.099 149.044 15.3136 149.052 15.5777C149.06 15.8336 149.068 16.1101 149.077 16.4072C149.093 16.6961 149.101 16.9808 149.101 17.2615V22.8328H148.148ZM157.627 22.8328V14.6863H155.089V13.7825H161.131V14.6863H158.605V22.8328H157.627Z" fill="white" fill-opacity="0.15"/>
</svg>
