<svg width="240" height="142" viewBox="0 0 240 142" fill="none" xmlns="http://www.w3.org/2000/svg">
<path d="M95.4362 71.3777V71.0952C95.4362 70.3985 95.1914 69.8524 94.7206 69.4758C94.2498 69.0803 93.6472 68.892 92.894 68.892C92.3102 68.892 91.8583 68.9862 91.5193 69.1933C91.1992 69.3816 90.8979 69.6641 90.5966 70.0595C90.5024 70.1725 90.4083 70.2478 90.3141 70.3043C90.22 70.342 90.0693 70.3608 89.8999 70.3608H89.2408C89.0901 70.3608 88.9395 70.3043 88.8077 70.1913C88.6947 70.0784 88.6382 69.9465 88.657 69.7771C88.6947 69.3439 88.9206 68.9297 89.2973 68.5154C89.6927 68.0823 90.2012 67.7433 90.8414 67.4609C91.4817 67.1972 92.1596 67.0466 92.894 67.0466C94.2498 67.0466 95.342 67.4232 96.1706 68.1576C97.018 68.9108 97.4322 69.9465 97.4322 71.2835V77.8367C97.4322 77.9874 97.3758 78.138 97.2628 78.251C97.1498 78.364 96.9991 78.4205 96.8485 78.4205H96.0388C95.8881 78.4205 95.7375 78.364 95.6245 78.251C95.5115 78.138 95.455 78.0062 95.455 77.8367V76.9517C95.229 77.4601 94.7206 77.8744 93.9673 78.1757C93.2141 78.477 92.4609 78.6276 91.7076 78.6276C90.9732 78.6276 90.3141 78.4958 89.7304 78.2322C89.1466 77.9685 88.6947 77.5919 88.3745 77.14C88.0733 76.688 87.9226 76.1608 87.9226 75.5958C87.9226 74.5225 88.3369 73.6939 89.1466 73.0913C89.9564 72.4699 91.0485 72.0556 92.4044 71.8485L95.4362 71.3777ZM95.4362 73.1101L92.8563 73.5244C91.9148 73.6751 91.1804 73.901 90.6531 74.24C90.1258 74.5601 89.8622 74.9556 89.8622 75.4452C89.8622 75.803 90.0317 76.1231 90.3706 76.4056C90.7096 76.688 91.218 76.8387 91.8959 76.8387C92.9505 76.8387 93.7979 76.5374 94.4381 75.9536C95.0972 75.3699 95.4173 74.5978 95.4173 73.6562V73.1101H95.4362Z" fill="#F9F9F9"/>
<path d="M102.592 77.8744C102.592 78.0251 102.535 78.1757 102.422 78.2887C102.309 78.4017 102.159 78.4582 102.008 78.4582H101.198C101.048 78.4582 100.897 78.4017 100.784 78.2887C100.671 78.1757 100.615 78.0439 100.615 77.8744V63.7888C100.615 63.6382 100.671 63.4875 100.784 63.3746C100.897 63.2616 101.048 63.2051 101.198 63.2051H102.008C102.159 63.2051 102.309 63.2616 102.422 63.3746C102.535 63.4875 102.592 63.6194 102.592 63.7888V77.8744Z" fill="#F9F9F9"/>
<path d="M110.444 76.8199C111.894 76.8199 112.874 76.2549 113.382 75.1439C113.476 74.9368 113.589 74.7861 113.683 74.692C113.777 74.5978 113.928 74.5602 114.098 74.5602H114.757C114.907 74.5602 115.058 74.6166 115.171 74.7296C115.284 74.8238 115.34 74.9556 115.34 75.0874C115.34 75.577 115.152 76.1043 114.757 76.6504C114.361 77.2153 113.796 77.6861 113.062 78.0627C112.328 78.4582 111.442 78.6465 110.444 78.6465C109.409 78.6465 108.524 78.4393 107.77 78.0062C107.017 77.5731 106.433 76.9893 106.019 76.2549C105.605 75.5017 105.379 74.6543 105.341 73.7128C105.322 73.5433 105.322 73.2043 105.322 72.7336C105.322 72.3946 105.322 72.1498 105.341 71.9991C105.473 70.5303 105.981 69.344 106.848 68.4401C107.714 67.5174 108.919 67.0654 110.444 67.0654C111.442 67.0654 112.309 67.2537 113.043 67.6492C113.777 68.0258 114.342 68.4778 114.719 69.0427C115.114 69.5888 115.322 70.0972 115.359 70.5868C115.378 70.7375 115.322 70.8881 115.19 71.0011C115.077 71.1141 114.926 71.1706 114.776 71.1706H114.116C113.947 71.1706 113.796 71.1329 113.702 71.0388C113.608 70.9446 113.495 70.794 113.401 70.5868C112.892 69.4758 111.913 68.9109 110.463 68.9109C109.672 68.9109 108.957 69.1745 108.373 69.7018C107.77 70.229 107.431 71.0388 107.356 72.1121C107.337 72.2628 107.337 72.5264 107.337 72.8842C107.337 73.2043 107.337 73.4491 107.356 73.6186C107.45 74.692 107.808 75.5017 108.373 76.029C108.957 76.5562 109.654 76.8199 110.444 76.8199Z" fill="#F9F9F9"/>
<path d="M128.033 77.8744C128.033 78.0251 127.976 78.1757 127.863 78.2887C127.75 78.4017 127.599 78.4582 127.449 78.4582H126.639C126.488 78.4582 126.338 78.4017 126.225 78.2887C126.112 78.1757 126.055 78.0439 126.055 77.8744V72.2063C126.055 71.1329 125.792 70.3232 125.246 69.7583C124.699 69.1933 123.965 68.9297 123.005 68.9297C122.063 68.9297 121.31 69.2122 120.764 69.7583C120.218 70.3232 119.954 71.1329 119.954 72.2063V77.8744C119.954 78.0251 119.898 78.1757 119.785 78.2887C119.672 78.4017 119.521 78.4582 119.37 78.4582H118.561C118.41 78.4582 118.259 78.4017 118.146 78.2887C118.033 78.1757 117.977 78.0439 117.977 77.8744V63.7888C117.977 63.6382 118.033 63.4875 118.146 63.3746C118.259 63.2616 118.41 63.2051 118.561 63.2051H119.37C119.521 63.2051 119.672 63.2616 119.785 63.3746C119.898 63.4875 119.954 63.6194 119.954 63.7888V68.5342C120.274 68.12 120.707 67.781 121.253 67.4985C121.818 67.2161 122.515 67.0654 123.325 67.0654C124.248 67.0654 125.057 67.2537 125.773 67.6492C126.488 68.0446 127.035 68.5907 127.43 69.3251C127.844 70.0407 128.033 70.8881 128.033 71.8862V77.8744Z" fill="#F9F9F9"/>
<path d="M135.678 67.0654C137.241 67.0654 138.465 67.555 139.369 68.5342C140.273 69.5135 140.725 70.8316 140.725 72.5076V73.0913C140.725 73.242 140.668 73.3926 140.555 73.5056C140.442 73.6186 140.291 73.6751 140.141 73.6751H132.646V73.8069C132.684 74.7485 132.966 75.5017 133.512 76.0478C134.077 76.5751 134.812 76.8387 135.697 76.8387C136.431 76.8387 136.977 76.7445 137.373 76.5562C137.787 76.3679 138.145 76.1043 138.465 75.7653C138.578 75.6523 138.691 75.577 138.766 75.5205C138.86 75.4829 138.992 75.464 139.162 75.464H139.821C139.99 75.464 140.141 75.5205 140.254 75.6335C140.367 75.7465 140.423 75.8783 140.404 76.0478C140.348 76.4432 140.122 76.8387 139.745 77.253C139.388 77.6484 138.86 78.0062 138.145 78.2887C137.467 78.5523 136.638 78.703 135.678 78.703C134.755 78.703 133.927 78.4958 133.192 78.0815C132.458 77.6484 131.893 77.0647 131.441 76.3303C131.027 75.577 130.763 74.7485 130.669 73.8257C130.631 73.3926 130.631 73.0725 130.631 72.8465C130.631 72.6206 130.65 72.2816 130.669 71.8673C130.763 70.9823 131.008 70.1725 131.441 69.457C131.874 68.7414 132.458 68.1765 133.154 67.7622C133.889 67.2726 134.736 67.0654 135.678 67.0654ZM138.747 71.8673V71.8108C138.747 70.9446 138.465 70.2479 137.9 69.7206C137.354 69.1933 136.601 68.9297 135.678 68.9297C134.83 68.9297 134.115 69.1933 133.512 69.7206C132.928 70.2479 132.627 70.9446 132.627 71.8108V71.8673H138.747Z" fill="#F9F9F9"/>
<path d="M145.319 68.5342C145.677 68.0823 146.054 67.7433 146.506 67.4797C146.939 67.2161 147.523 67.0654 148.257 67.0654C149.952 67.0654 151.157 67.6869 151.835 68.9297C152.249 68.3271 152.739 67.8752 153.266 67.555C153.812 67.2349 154.509 67.0654 155.375 67.0654C156.806 67.0654 157.861 67.4797 158.539 68.3271C159.235 69.1745 159.593 70.3608 159.593 71.905V77.8556C159.593 78.0062 159.537 78.1569 159.424 78.2699C159.311 78.3828 159.16 78.4393 159.009 78.4393H158.2C158.049 78.4393 157.898 78.3828 157.785 78.2699C157.672 78.1569 157.616 78.0251 157.616 77.8556V72.131C157.616 69.9842 156.75 68.9109 155.036 68.9109C154.245 68.9109 153.624 69.1745 153.153 69.6829C152.682 70.1914 152.456 70.9634 152.456 71.9803V77.8556C152.456 78.0062 152.4 78.1569 152.287 78.2699C152.174 78.3828 152.023 78.4393 151.872 78.4393H151.063C150.912 78.4393 150.761 78.3828 150.648 78.2699C150.535 78.1569 150.479 78.0251 150.479 77.8556V72.131C150.479 69.9842 149.613 68.9109 147.899 68.9109C147.108 68.9109 146.487 69.1745 146.016 69.6829C145.545 70.1914 145.319 70.9634 145.319 71.9803V77.8556C145.319 78.0062 145.263 78.1569 145.15 78.2699C145.037 78.3828 144.886 78.4393 144.736 78.4393H143.926C143.775 78.4393 143.625 78.3828 143.512 78.2699C143.399 78.1569 143.342 78.0251 143.342 77.8556V67.8563C143.342 67.7057 143.399 67.555 143.512 67.442C143.625 67.3291 143.775 67.2726 143.926 67.2726H144.736C144.886 67.2726 145.037 67.3291 145.15 67.442C145.263 67.555 145.319 67.6868 145.319 67.8563V68.5342Z" fill="#F9F9F9"/>
<path d="M165.695 82.0172C165.563 82.3562 165.356 82.5256 165.054 82.5256H164.169C164.019 82.5256 163.906 82.4691 163.793 82.375C163.698 82.2808 163.642 82.149 163.642 82.0172C163.642 81.9607 163.642 81.9042 163.661 81.8666L165.751 77.3848L161.439 67.9505C161.42 67.9128 161.42 67.8563 161.42 67.7998C161.42 67.6492 161.476 67.5362 161.571 67.442C161.665 67.3479 161.797 67.2914 161.947 67.2914H162.832C163.115 67.2914 163.341 67.4609 163.473 67.7998L166.824 75.1062L170.233 67.7998C170.365 67.4609 170.572 67.2914 170.873 67.2914H171.758C171.909 67.2914 172.022 67.3479 172.135 67.442C172.229 67.5362 172.285 67.668 172.285 67.7998C172.285 67.8563 172.285 67.9128 172.267 67.9505L165.695 82.0172Z" fill="#F9F9F9"/>
<path d="M79.6558 71.34L72.3306 58.9116C72.2929 58.8551 72.2364 58.7986 72.1799 58.761C72.1234 58.7233 72.0481 58.7045 71.9728 58.7045C71.8975 58.7045 71.8221 58.7233 71.7657 58.761C71.7092 58.7986 71.6527 58.8551 71.615 58.9116L69.4306 62.6401C69.3553 62.7531 69.3176 62.9038 69.3176 63.0356C69.3176 63.1674 69.3553 63.3181 69.4306 63.431L74.2137 71.5472C74.289 71.6602 74.3832 71.7732 74.515 71.8485C74.6468 71.9238 74.7786 71.9615 74.9293 71.9615H79.298C79.3734 71.9615 79.4487 71.9426 79.5052 71.905C79.5617 71.8673 79.6182 71.8108 79.6558 71.7543C79.6935 71.6978 79.7123 71.6225 79.7123 71.5472C79.7123 71.4719 79.6935 71.4154 79.6558 71.34Z" fill="#F9F9F9"/>
<path d="M60.467 77.8367L67.7923 65.4083C67.83 65.3518 67.8864 65.2953 67.9429 65.2577C67.9994 65.22 68.0748 65.2012 68.1501 65.2012C68.2254 65.2012 68.3007 65.22 68.3572 65.2577C68.4137 65.2953 68.4702 65.3518 68.5079 65.4083L70.6923 69.1368C70.7676 69.2498 70.8052 69.4005 70.8052 69.5323C70.8052 69.6641 70.7676 69.8148 70.6923 69.9277L65.9092 78.0439C65.8339 78.1569 65.7397 78.2699 65.6079 78.3452C65.4761 78.4205 65.3443 78.4582 65.1936 78.4582H60.806C60.7307 78.4582 60.6554 78.4393 60.5989 78.4017C60.5424 78.364 60.4859 78.3075 60.4482 78.251C60.4106 78.1945 60.3917 78.1192 60.3917 78.0439C60.4106 77.9686 60.4294 77.9121 60.467 77.8367Z" fill="#F9F9F9"/>
<path d="M68.4891 78.4393H83.1396C83.2149 78.4393 83.2902 78.4205 83.3467 78.3828C83.4032 78.3451 83.4597 78.2886 83.4974 78.2321C83.535 78.1756 83.5539 78.1003 83.5539 78.025C83.5539 77.9497 83.535 77.8932 83.4974 77.8179L81.313 74.0893C81.2376 73.9763 81.1435 73.8634 81.0117 73.788C80.8799 73.7127 80.748 73.675 80.5974 73.675H71.0501C70.8994 73.675 70.7676 73.7127 70.6358 73.788C70.504 73.8634 70.4098 73.9575 70.3345 74.0893L68.1501 77.8179C68.1125 77.8744 68.0936 77.9497 68.0936 78.025C68.0936 78.1003 68.1125 78.1568 68.1501 78.2321C68.1878 78.2886 68.2443 78.3451 68.3008 78.3828C68.3573 78.4205 68.4326 78.4393 68.4891 78.4393Z" fill="#F9F9F9"/>
</svg>
