<svg width="113" height="25" viewBox="0 0 113 25" fill="none" xmlns="http://www.w3.org/2000/svg">
<path d="M35.4362 13.3777V13.0952C35.4362 12.3985 35.1914 11.8524 34.7206 11.4758C34.2498 11.0803 33.6472 10.892 32.894 10.892C32.3102 10.892 31.8583 10.9862 31.5193 11.1933C31.1992 11.3816 30.8979 11.6641 30.5966 12.0595C30.5024 12.1725 30.4083 12.2478 30.3141 12.3043C30.22 12.342 30.0693 12.3608 29.8999 12.3608H29.2408C29.0901 12.3608 28.9395 12.3043 28.8077 12.1913C28.6947 12.0784 28.6382 11.9465 28.657 11.7771C28.6947 11.3439 28.9206 10.9297 29.2973 10.5154C29.6927 10.0823 30.2012 9.74332 30.8414 9.46085C31.4817 9.19722 32.1596 9.04657 32.894 9.04657C34.2498 9.04657 35.342 9.42319 36.1706 10.1576C37.018 10.9108 37.4322 11.9465 37.4322 13.2835V19.8367C37.4322 19.9874 37.3758 20.138 37.2628 20.251C37.1498 20.364 36.9991 20.4205 36.8485 20.4205H36.0388C35.8881 20.4205 35.7375 20.364 35.6245 20.251C35.5115 20.138 35.455 20.0062 35.455 19.8367V18.9517C35.229 19.4601 34.7206 19.8744 33.9673 20.1757C33.2141 20.477 32.4609 20.6276 31.7076 20.6276C30.9732 20.6276 30.3141 20.4958 29.7304 20.2322C29.1466 19.9685 28.6947 19.5919 28.3745 19.14C28.0733 18.688 27.9226 18.1608 27.9226 17.5958C27.9226 16.5225 28.3369 15.6939 29.1466 15.0913C29.9564 14.4699 31.0485 14.0556 32.4044 13.8485L35.4362 13.3777ZM35.4362 15.1101L32.8563 15.5244C31.9148 15.6751 31.1804 15.901 30.6531 16.24C30.1258 16.5601 29.8622 16.9556 29.8622 17.4452C29.8622 17.803 30.0317 18.1231 30.3706 18.4056C30.7096 18.688 31.218 18.8387 31.8959 18.8387C32.9505 18.8387 33.7979 18.5374 34.4381 17.9536C35.0972 17.3699 35.4173 16.5978 35.4173 15.6562V15.1101H35.4362Z" fill="#F9F9F9"/>
<path d="M42.5919 19.8744C42.5919 20.0251 42.5354 20.1757 42.4224 20.2887C42.3094 20.4017 42.1588 20.4582 42.0081 20.4582H41.1984C41.0477 20.4582 40.8971 20.4017 40.7841 20.2887C40.6711 20.1757 40.6146 20.0439 40.6146 19.8744V5.78884C40.6146 5.63819 40.6711 5.48754 40.7841 5.37456C40.8971 5.26157 41.0477 5.20508 41.1984 5.20508H42.0081C42.1588 5.20508 42.3094 5.26157 42.4224 5.37456C42.5354 5.48754 42.5919 5.61936 42.5919 5.78884V19.8744Z" fill="#F9F9F9"/>
<path d="M50.4444 18.8199C51.8944 18.8199 52.8736 18.2549 53.382 17.1439C53.4762 16.9368 53.5892 16.7861 53.6833 16.692C53.7775 16.5978 53.9281 16.5602 54.0976 16.5602H54.7567C54.9073 16.5602 55.058 16.6166 55.171 16.7296C55.284 16.8238 55.3405 16.9556 55.3405 17.0874C55.3405 17.577 55.1522 18.1043 54.7567 18.6504C54.3612 19.2153 53.7963 19.6861 53.0619 20.0627C52.3275 20.4582 51.4425 20.6465 50.4444 20.6465C49.4087 20.6465 48.5237 20.4393 47.7704 20.0062C47.0172 19.5731 46.4334 18.9893 46.0191 18.2549C45.6048 17.5017 45.3789 16.6543 45.3412 15.7128C45.3224 15.5433 45.3224 15.2043 45.3224 14.7336C45.3224 14.3946 45.3224 14.1498 45.3412 13.9991C45.473 12.5303 45.9815 11.344 46.8477 10.4401C47.7139 9.51737 48.9191 9.06543 50.4444 9.06543C51.4425 9.06543 52.3087 9.25374 53.0431 9.64919C53.7775 10.0258 54.3424 10.4778 54.719 11.0427C55.1145 11.5888 55.3216 12.0972 55.3593 12.5868C55.3781 12.7375 55.3216 12.8881 55.1898 13.0011C55.0768 13.1141 54.9262 13.1706 54.7755 13.1706H54.1164C53.947 13.1706 53.7963 13.1329 53.7022 13.0388C53.608 12.9446 53.495 12.794 53.4009 12.5868C52.8924 11.4758 51.9132 10.9109 50.4632 10.9109C49.6723 10.9109 48.9568 11.1745 48.373 11.7018C47.7704 12.229 47.4315 13.0388 47.3561 14.1121C47.3373 14.2628 47.3373 14.5264 47.3373 14.8842C47.3373 15.2043 47.3373 15.4491 47.3561 15.6186C47.4503 16.692 47.8081 17.5017 48.373 18.029C48.9568 18.5562 49.6535 18.8199 50.4444 18.8199Z" fill="#F9F9F9"/>
<path d="M68.0325 19.8744C68.0325 20.0251 67.9761 20.1757 67.8631 20.2887C67.7501 20.4017 67.5994 20.4582 67.4488 20.4582H66.6391C66.4884 20.4582 66.3378 20.4017 66.2248 20.2887C66.1118 20.1757 66.0553 20.0439 66.0553 19.8744V14.2063C66.0553 13.1329 65.7917 12.3232 65.2456 11.7583C64.6995 11.1933 63.9651 10.9297 63.0047 10.9297C62.0631 10.9297 61.3099 11.2122 60.7638 11.7583C60.2177 12.3232 59.9541 13.1329 59.9541 14.2063V19.8744C59.9541 20.0251 59.8976 20.1757 59.7846 20.2887C59.6716 20.4017 59.5209 20.4582 59.3703 20.4582H58.5606C58.4099 20.4582 58.2593 20.4017 58.1463 20.2887C58.0333 20.1757 57.9768 20.0439 57.9768 19.8744V5.78884C57.9768 5.63819 58.0333 5.48754 58.1463 5.37456C58.2593 5.26157 58.4099 5.20508 58.5606 5.20508H59.3703C59.5209 5.20508 59.6716 5.26157 59.7846 5.37456C59.8976 5.48754 59.9541 5.61936 59.9541 5.78884V10.5342C60.2742 10.12 60.7073 9.781 61.2534 9.49854C61.8183 9.21607 62.5151 9.06543 63.3248 9.06543C64.2475 9.06543 65.0573 9.25374 65.7728 9.64919C66.4884 10.0446 67.0345 10.5907 67.43 11.3251C67.8442 12.0407 68.0325 12.8881 68.0325 13.8862V19.8744Z" fill="#F9F9F9"/>
<path d="M75.6778 9.06543C77.2408 9.06543 78.4648 9.55503 79.3687 10.5342C80.2726 11.5135 80.7245 12.8316 80.7245 14.5076V15.0913C80.7245 15.242 80.668 15.3926 80.555 15.5056C80.442 15.6186 80.2914 15.6751 80.1407 15.6751H72.646V15.8069C72.6837 16.7485 72.9661 17.5017 73.5122 18.0478C74.0772 18.5751 74.8116 18.8387 75.6966 18.8387C76.431 18.8387 76.9771 18.7445 77.3726 18.5562C77.7869 18.3679 78.1447 18.1043 78.4648 17.7653C78.5778 17.6523 78.6908 17.577 78.7661 17.5205C78.8602 17.4829 78.9921 17.464 79.1615 17.464H79.8206C79.9901 17.464 80.1407 17.5205 80.2537 17.6335C80.3667 17.7465 80.4232 17.8783 80.4044 18.0478C80.3479 18.4432 80.1219 18.8387 79.7453 19.253C79.3875 19.6484 78.8602 20.0062 78.1447 20.2887C77.4667 20.5523 76.6382 20.703 75.6778 20.703C74.7551 20.703 73.9265 20.4958 73.1921 20.0815C72.4577 19.6484 71.8928 19.0647 71.4408 18.3303C71.0266 17.577 70.7629 16.7485 70.6688 15.8257C70.6311 15.3926 70.6311 15.0725 70.6311 14.8465C70.6311 14.6206 70.6499 14.2816 70.6688 13.8673C70.7629 12.9823 71.0077 12.1725 71.4408 11.457C71.8739 10.7414 72.4577 10.1765 73.1545 9.76217C73.8889 9.27257 74.7363 9.06543 75.6778 9.06543ZM78.7473 13.8673V13.8108C78.7473 12.9446 78.4648 12.2479 77.8999 11.7206C77.3538 11.1933 76.6005 10.9297 75.6778 10.9297C74.8304 10.9297 74.1148 11.1933 73.5122 11.7206C72.9285 12.2479 72.6272 12.9446 72.6272 13.8108V13.8673H78.7473Z" fill="#F9F9F9"/>
<path d="M85.3193 10.5342C85.6771 10.0823 86.0537 9.74334 86.5057 9.47971C86.9388 9.21607 87.5225 9.06543 88.2569 9.06543C89.9517 9.06543 91.1569 9.68685 91.8348 10.9297C92.2491 10.3271 92.7387 9.87516 93.266 9.55504C93.8121 9.23491 94.5088 9.06543 95.375 9.06543C96.8062 9.06543 97.8607 9.47971 98.5386 10.3271C99.2354 11.1745 99.5932 12.3608 99.5932 13.905V19.8556C99.5932 20.0062 99.5367 20.1569 99.4237 20.2699C99.3107 20.3828 99.1601 20.4393 99.0094 20.4393H98.1997C98.049 20.4393 97.8984 20.3828 97.7854 20.2699C97.6724 20.1569 97.6159 20.0251 97.6159 19.8556V14.131C97.6159 11.9842 96.7497 10.9109 95.0361 10.9109C94.2452 10.9109 93.6238 11.1745 93.153 11.6829C92.6822 12.1914 92.4562 12.9634 92.4562 13.9803V19.8556C92.4562 20.0062 92.3997 20.1569 92.2868 20.2699C92.1738 20.3828 92.0231 20.4393 91.8725 20.4393H91.0627C90.9121 20.4393 90.7615 20.3828 90.6485 20.2699C90.5355 20.1569 90.479 20.0251 90.479 19.8556V14.131C90.479 11.9842 89.6128 10.9109 87.8991 10.9109C87.1082 10.9109 86.4868 11.1745 86.016 11.6829C85.5453 12.1914 85.3193 12.9634 85.3193 13.9803V19.8556C85.3193 20.0062 85.2628 20.1569 85.1498 20.2699C85.0368 20.3828 84.8862 20.4393 84.7355 20.4393H83.9258C83.7752 20.4393 83.6245 20.3828 83.5115 20.2699C83.3985 20.1569 83.342 20.0251 83.342 19.8556V9.85633C83.342 9.70568 83.3985 9.55503 83.5115 9.44205C83.6245 9.32906 83.7752 9.27257 83.9258 9.27257H84.7355C84.8862 9.27257 85.0368 9.32906 85.1498 9.44205C85.2628 9.55503 85.3193 9.68685 85.3193 9.85633V10.5342Z" fill="#F9F9F9"/>
<path d="M105.695 24.0172C105.563 24.3562 105.356 24.5256 105.054 24.5256H104.169C104.019 24.5256 103.906 24.4691 103.793 24.375C103.698 24.2808 103.642 24.149 103.642 24.0172C103.642 23.9607 103.642 23.9042 103.661 23.8666L105.751 19.3848L101.439 9.95047C101.42 9.9128 101.42 9.85631 101.42 9.79982C101.42 9.64917 101.476 9.53619 101.571 9.44203C101.665 9.34788 101.797 9.29138 101.947 9.29138H102.832C103.115 9.29138 103.341 9.46086 103.473 9.79982L106.824 17.1062L110.233 9.79982C110.365 9.46086 110.572 9.29138 110.873 9.29138H111.758C111.909 9.29138 112.022 9.34788 112.135 9.44203C112.229 9.53619 112.285 9.668 112.285 9.79982C112.285 9.85631 112.285 9.9128 112.267 9.95047L105.695 24.0172Z" fill="#F9F9F9"/>
<path d="M19.6558 13.34L12.3306 0.91161C12.2929 0.855117 12.2364 0.798623 12.1799 0.760961C12.1234 0.723299 12.0481 0.704468 11.9728 0.704468C11.8975 0.704468 11.8221 0.723299 11.7657 0.760961C11.7092 0.798623 11.6527 0.855117 11.615 0.91161L9.43061 4.64014C9.35529 4.75313 9.31763 4.90378 9.31763 5.03559C9.31763 5.16741 9.35529 5.31805 9.43061 5.43104L14.2137 13.5472C14.289 13.6602 14.3832 13.7732 14.515 13.8485C14.6468 13.9238 14.7786 13.9615 14.9293 13.9615H19.298C19.3734 13.9615 19.4487 13.9426 19.5052 13.905C19.5617 13.8673 19.6182 13.8108 19.6558 13.7543C19.6935 13.6978 19.7123 13.6225 19.7123 13.5472C19.7123 13.4719 19.6935 13.4154 19.6558 13.34Z" fill="#F9F9F9"/>
<path d="M0.467048 19.8367L7.79229 7.40831C7.82995 7.35182 7.88645 7.29532 7.94294 7.25766C7.99943 7.22 8.07476 7.20117 8.15008 7.20117C8.22541 7.20117 8.30073 7.22 8.35722 7.25766C8.41371 7.29532 8.47021 7.35182 8.50787 7.40831L10.6923 11.1368C10.7676 11.2498 10.8052 11.4005 10.8052 11.5323C10.8052 11.6641 10.7676 11.8148 10.6923 11.9277L5.9092 20.0439C5.83387 20.1569 5.73972 20.2699 5.6079 20.3452C5.47609 20.4205 5.34427 20.4582 5.19362 20.4582H0.806006C0.730682 20.4582 0.655357 20.4393 0.598864 20.4017C0.542371 20.364 0.485879 20.3075 0.448217 20.251C0.410555 20.1945 0.391724 20.1192 0.391724 20.0439C0.410555 19.9686 0.429386 19.9121 0.467048 19.8367Z" fill="#F9F9F9"/>
<path d="M8.48908 20.4393H23.1396C23.2149 20.4393 23.2902 20.4205 23.3467 20.3828C23.4032 20.3451 23.4597 20.2886 23.4974 20.2321C23.535 20.1756 23.5539 20.1003 23.5539 20.025C23.5539 19.9497 23.535 19.8932 23.4974 19.8179L21.313 16.0893C21.2376 15.9763 21.1435 15.8634 21.0117 15.788C20.8799 15.7127 20.748 15.675 20.5974 15.675H11.0501C10.8994 15.675 10.7676 15.7127 10.6358 15.788C10.504 15.8634 10.4098 15.9575 10.3345 16.0893L8.15012 19.8179C8.11246 19.8744 8.09363 19.9497 8.09363 20.025C8.09363 20.1003 8.11246 20.1568 8.15012 20.2321C8.18778 20.2886 8.24428 20.3451 8.30077 20.3828C8.35726 20.4205 8.43259 20.4393 8.48908 20.4393Z" fill="#F9F9F9"/>
</svg>
