<svg width="72" height="44" viewBox="0 0 72 44" fill="none" xmlns="http://www.w3.org/2000/svg">
<path d="M20.7778 16.2917C20.7778 17.1503 20.8707 17.8464 21.0331 18.3569C21.2187 18.8674 21.4508 19.4243 21.7756 20.0276C21.8916 20.2133 21.9381 20.3989 21.9381 20.5613C21.9381 20.7934 21.7988 21.0254 21.4972 21.2575L20.0353 22.232C19.8265 22.3713 19.6176 22.4409 19.432 22.4409C19.1999 22.4409 18.9679 22.3249 18.7358 22.116C18.411 21.768 18.1325 21.3967 17.9005 21.0254C17.6684 20.6309 17.4364 20.1901 17.1812 19.6564C15.3712 21.7912 13.0972 22.8586 10.359 22.8586C8.40988 22.8586 6.85518 22.3017 5.71816 21.1878C4.58115 20.074 4.00104 18.5889 4.00104 16.7326C4.00104 14.7602 4.69717 13.1591 6.11264 11.9525C7.52811 10.7459 9.40767 10.1425 11.7977 10.1425C12.5867 10.1425 13.3988 10.2122 14.2574 10.3282C15.116 10.4442 15.9977 10.6298 16.9259 10.8387V9.14475C16.9259 7.38121 16.5546 6.15138 15.8353 5.43204C15.0928 4.7127 13.8397 4.36464 12.053 4.36464C11.2408 4.36464 10.4055 4.45745 9.54689 4.66629C8.68833 4.87513 7.85297 5.13038 7.04082 5.45524C6.66955 5.61767 6.39109 5.71049 6.22866 5.7569C6.06623 5.80331 5.95021 5.82651 5.85739 5.82651C5.53253 5.82651 5.3701 5.59447 5.3701 5.10718V3.97016C5.3701 3.59889 5.41651 3.32044 5.53253 3.15801C5.64855 2.99557 5.85739 2.83314 6.18225 2.67071C6.99441 2.25303 7.96899 1.90497 9.10601 1.62651C10.243 1.32486 11.4497 1.18563 12.7259 1.18563C15.4872 1.18563 17.506 1.81215 18.8055 3.06519C20.0817 4.31823 20.7314 6.22099 20.7314 8.77348V16.2917H20.7778ZM11.3568 19.8188C12.1226 19.8188 12.9115 19.6796 13.7469 19.4011C14.5823 19.1226 15.3248 18.6122 15.9513 17.916C16.3226 17.4751 16.601 16.9878 16.7403 16.4309C16.8795 15.874 16.9723 15.2011 16.9723 14.4122V13.4376C16.2994 13.2751 15.58 13.1359 14.8375 13.0431C14.095 12.9503 13.3756 12.9039 12.6563 12.9039C11.1016 12.9039 9.96457 13.2055 9.19883 13.832C8.43308 14.4586 8.06181 15.3403 8.06181 16.5005C8.06181 17.5912 8.34026 18.4033 8.92037 18.9602C9.47728 19.5403 10.2894 19.8188 11.3568 19.8188ZM29.99 22.3249C29.5723 22.3249 29.2939 22.2552 29.1082 22.0928C28.9226 21.9536 28.7602 21.6287 28.6209 21.1878L23.1679 3.25082C23.0287 2.78674 22.9591 2.48508 22.9591 2.32265C22.9591 1.95138 23.1447 1.74254 23.516 1.74254H25.79C26.2309 1.74254 26.5325 1.81215 26.695 1.97458C26.8806 2.11381 27.0198 2.43867 27.1591 2.87955L31.0574 18.2409L34.6773 2.87955C34.7933 2.41546 34.9325 2.11381 35.1182 1.97458C35.3038 1.83535 35.6287 1.74254 36.0463 1.74254H37.9027C38.3436 1.74254 38.6452 1.81215 38.8309 1.97458C39.0165 2.11381 39.1789 2.43867 39.2718 2.87955L42.9381 18.4265L46.9524 2.87955C47.0916 2.41546 47.2541 2.11381 47.4165 1.97458C47.6021 1.83535 47.9038 1.74254 48.3215 1.74254H50.4795C50.8508 1.74254 51.0596 1.92817 51.0596 2.32265C51.0596 2.43867 51.0364 2.55469 51.0132 2.69392C50.99 2.83314 50.9436 3.01878 50.8508 3.27403L45.2585 21.211C45.1193 21.6751 44.9568 21.9768 44.7712 22.116C44.5856 22.2552 44.2839 22.3481 43.8894 22.3481H41.8939C41.453 22.3481 41.1513 22.2784 40.9657 22.116C40.78 21.9536 40.6176 21.6519 40.5248 21.1878L36.9281 6.22099L33.3546 21.1646C33.2386 21.6287 33.0994 21.9304 32.9137 22.0928C32.7281 22.2552 32.4032 22.3249 31.9856 22.3249H29.99ZM59.8077 22.9514C58.601 22.9514 57.3944 22.8122 56.2342 22.5337C55.074 22.2552 54.169 21.9536 53.5657 21.6055C53.1944 21.3967 52.9392 21.1646 52.8463 20.9558C52.7535 20.747 52.7071 20.5149 52.7071 20.3061V19.1226C52.7071 18.6354 52.8928 18.4033 53.2408 18.4033C53.38 18.4033 53.5193 18.4265 53.6585 18.4729C53.7977 18.5193 54.0066 18.6122 54.2386 18.705C55.0276 19.053 55.8861 19.3315 56.7911 19.5171C57.7193 19.7028 58.6242 19.7956 59.5524 19.7956C61.0143 19.7956 62.1513 19.5403 62.9403 19.0298C63.7292 18.5193 64.1469 17.7768 64.1469 16.8254C64.1469 16.1757 63.9381 15.642 63.5204 15.2011C63.1027 14.7602 62.3137 14.3657 61.1767 13.9945L57.8121 12.9503C56.1182 12.4166 54.8651 11.6276 54.0994 10.5834C53.3336 9.56243 52.9392 8.42541 52.9392 7.21878C52.9392 6.24419 53.148 5.38563 53.5657 4.64309C53.9834 3.90055 54.5403 3.25082 55.2364 2.74033C55.9325 2.20662 56.7215 1.81215 57.6497 1.5337C58.5778 1.25524 59.5524 1.13922 60.5734 1.13922C61.0839 1.13922 61.6176 1.16243 62.1281 1.23204C62.6618 1.30165 63.1491 1.39447 63.6364 1.48729C64.1005 1.60331 64.5414 1.71933 64.959 1.85856C65.3767 1.99778 65.7016 2.13701 65.9336 2.27624C66.2585 2.46187 66.4905 2.64751 66.6298 2.85635C66.769 3.04198 66.8386 3.29723 66.8386 3.62209V4.7127C66.8386 5.19999 66.653 5.45524 66.3049 5.45524C66.1193 5.45524 65.8176 5.36243 65.4231 5.17679C64.1005 4.57348 62.6154 4.27182 60.9679 4.27182C59.6452 4.27182 58.601 4.48066 57.8817 4.92154C57.1624 5.36243 56.7911 6.03535 56.7911 6.98674C56.7911 7.63646 57.0231 8.19337 57.4872 8.63425C57.9513 9.07513 58.8099 9.51602 60.0397 9.91049L63.3347 10.9547C65.0055 11.4884 66.2121 12.2309 66.9314 13.1823C67.6508 14.1337 67.9988 15.2243 67.9988 16.4309C67.9988 17.4287 67.79 18.3337 67.3955 19.1226C66.9778 19.9116 66.4209 20.6077 65.7016 21.1646C64.9823 21.7447 64.1237 22.1624 63.1259 22.4641C62.0817 22.7889 60.9911 22.9514 59.8077 22.9514Z" fill="#F9F9F9"/>
<path fill-rule="evenodd" clip-rule="evenodd" d="M64.1933 34.2287C56.5591 39.8674 45.4674 42.8608 35.9303 42.8608C22.5646 42.8608 10.5215 37.9182 1.42536 29.7039C0.706022 29.0541 1.35575 28.1724 2.21431 28.6829C12.053 34.3911 24.1889 37.8486 36.7425 37.8486C45.2121 37.8486 54.5171 36.0851 63.0795 32.4652C64.3558 31.8851 65.4464 33.3005 64.1933 34.2287Z" fill="#F9F9F9"/>
<path fill-rule="evenodd" clip-rule="evenodd" d="M67.3723 30.6089C66.3978 29.3558 60.9215 30.0055 58.4386 30.3072C57.6961 30.4 57.5801 29.7503 58.253 29.263C62.6154 26.2 69.7856 27.0818 70.621 28.1028C71.4563 29.147 70.3889 36.3171 66.3049 39.7514C65.6784 40.2851 65.0751 40.0066 65.3536 39.3105C66.2817 37.0133 68.3469 31.8387 67.3723 30.6089Z" fill="#F9F9F9"/>
</svg>
