<svg width="240" height="142" viewBox="0 0 240 142" fill="none" xmlns="http://www.w3.org/2000/svg">
<path d="M104.778 65.2917C104.778 66.1503 104.871 66.8464 105.033 67.3569C105.219 67.8674 105.451 68.4243 105.776 69.0276C105.892 69.2133 105.938 69.3989 105.938 69.5613C105.938 69.7934 105.799 70.0254 105.497 70.2575L104.035 71.232C103.826 71.3713 103.618 71.4409 103.432 71.4409C103.2 71.4409 102.968 71.3249 102.736 71.116C102.411 70.768 102.133 70.3967 101.9 70.0254C101.668 69.6309 101.436 69.1901 101.181 68.6564C99.3712 70.7912 97.0972 71.8586 94.359 71.8586C92.4099 71.8586 90.8552 71.3017 89.7182 70.1878C88.5811 69.074 88.001 67.5889 88.001 65.7326C88.001 63.7602 88.6972 62.1591 90.1126 60.9525C91.5281 59.7459 93.4077 59.1425 95.7977 59.1425C96.5867 59.1425 97.3988 59.2122 98.2574 59.3282C99.116 59.4442 99.9977 59.6298 100.926 59.8387V58.1447C100.926 56.3812 100.555 55.1514 99.8353 54.432C99.0928 53.7127 97.8397 53.3646 96.053 53.3646C95.2408 53.3646 94.4055 53.4575 93.5469 53.6663C92.6883 53.8751 91.853 54.1304 91.0408 54.4552C90.6695 54.6177 90.3911 54.7105 90.2287 54.7569C90.0662 54.8033 89.9502 54.8265 89.8574 54.8265C89.5325 54.8265 89.3701 54.5945 89.3701 54.1072V52.9702C89.3701 52.5989 89.4165 52.3204 89.5325 52.158C89.6486 51.9956 89.8574 51.8331 90.1823 51.6707C90.9944 51.253 91.969 50.905 93.106 50.6265C94.243 50.3249 95.4497 50.1856 96.7259 50.1856C99.4872 50.1856 101.506 50.8121 102.805 52.0652C104.082 53.3182 104.731 55.221 104.731 57.7735V65.2917H104.778ZM95.3568 68.8188C96.1226 68.8188 96.9115 68.6796 97.7469 68.4011C98.5823 68.1226 99.3248 67.6122 99.9513 66.916C100.323 66.4751 100.601 65.9878 100.74 65.4309C100.879 64.874 100.972 64.2011 100.972 63.4122V62.4376C100.299 62.2751 99.58 62.1359 98.8375 62.0431C98.095 61.9503 97.3756 61.9039 96.6563 61.9039C95.1016 61.9039 93.9646 62.2055 93.1988 62.832C92.4331 63.4586 92.0618 64.3403 92.0618 65.5005C92.0618 66.5912 92.3403 67.4033 92.9204 67.9602C93.4773 68.5403 94.2894 68.8188 95.3568 68.8188ZM113.99 71.3249C113.572 71.3249 113.294 71.2552 113.108 71.0928C112.923 70.9536 112.76 70.6287 112.621 70.1878L107.168 52.2508C107.029 51.7867 106.959 51.4851 106.959 51.3226C106.959 50.9514 107.145 50.7425 107.516 50.7425H109.79C110.231 50.7425 110.533 50.8121 110.695 50.9746C110.881 51.1138 111.02 51.4387 111.159 51.8796L115.057 67.2409L118.677 51.8796C118.793 51.4155 118.933 51.1138 119.118 50.9746C119.304 50.8354 119.629 50.7425 120.046 50.7425H121.903C122.344 50.7425 122.645 50.8121 122.831 50.9746C123.017 51.1138 123.179 51.4387 123.272 51.8796L126.938 67.4265L130.952 51.8796C131.092 51.4155 131.254 51.1138 131.417 50.9746C131.602 50.8354 131.904 50.7425 132.321 50.7425H134.479C134.851 50.7425 135.06 50.9282 135.06 51.3226C135.06 51.4387 135.036 51.5547 135.013 51.6939C134.99 51.8331 134.944 52.0188 134.851 52.274L129.258 70.211C129.119 70.6751 128.957 70.9768 128.771 71.116C128.586 71.2552 128.284 71.3481 127.889 71.3481H125.894C125.453 71.3481 125.151 71.2784 124.966 71.116C124.78 70.9536 124.618 70.6519 124.525 70.1878L120.928 55.221L117.355 70.1646C117.239 70.6287 117.099 70.9304 116.914 71.0928C116.728 71.2552 116.403 71.3249 115.986 71.3249H113.99ZM143.808 71.9514C142.601 71.9514 141.394 71.8122 140.234 71.5337C139.074 71.2552 138.169 70.9536 137.566 70.6055C137.194 70.3967 136.939 70.1646 136.846 69.9558C136.754 69.747 136.707 69.5149 136.707 69.3061V68.1226C136.707 67.6354 136.893 67.4033 137.241 67.4033C137.38 67.4033 137.519 67.4265 137.659 67.4729C137.798 67.5193 138.007 67.6122 138.239 67.705C139.028 68.053 139.886 68.3315 140.791 68.5171C141.719 68.7028 142.624 68.7956 143.552 68.7956C145.014 68.7956 146.151 68.5403 146.94 68.0298C147.729 67.5193 148.147 66.7768 148.147 65.8254C148.147 65.1757 147.938 64.642 147.52 64.2011C147.103 63.7602 146.314 63.3657 145.177 62.9945L141.812 61.9503C140.118 61.4166 138.865 60.6276 138.099 59.5834C137.334 58.5624 136.939 57.4254 136.939 56.2188C136.939 55.2442 137.148 54.3856 137.566 53.6431C137.983 52.9005 138.54 52.2508 139.236 51.7403C139.933 51.2066 140.721 50.8121 141.65 50.5337C142.578 50.2552 143.552 50.1392 144.573 50.1392C145.084 50.1392 145.618 50.1624 146.128 50.232C146.662 50.3017 147.149 50.3945 147.636 50.4873C148.1 50.6033 148.541 50.7193 148.959 50.8586C149.377 50.9978 149.702 51.137 149.934 51.2762C150.259 51.4619 150.491 51.6475 150.63 51.8563C150.769 52.042 150.839 52.2972 150.839 52.6221V53.7127C150.839 54.2 150.653 54.4552 150.305 54.4552C150.119 54.4552 149.818 54.3624 149.423 54.1768C148.1 53.5735 146.615 53.2718 144.968 53.2718C143.645 53.2718 142.601 53.4807 141.882 53.9215C141.162 54.3624 140.791 55.0354 140.791 55.9867C140.791 56.6365 141.023 57.1934 141.487 57.6343C141.951 58.0751 142.81 58.516 144.04 58.9105L147.335 59.9547C149.005 60.4884 150.212 61.2309 150.931 62.1823C151.651 63.1337 151.999 64.2243 151.999 65.4309C151.999 66.4287 151.79 67.3337 151.396 68.1226C150.978 68.9116 150.421 69.6077 149.702 70.1646C148.982 70.7447 148.124 71.1624 147.126 71.4641C146.082 71.7889 144.991 71.9514 143.808 71.9514Z" fill="#F9F9F9"/>
<path fill-rule="evenodd" clip-rule="evenodd" d="M148.193 83.2287C140.559 88.8674 129.467 91.8608 119.93 91.8608C106.565 91.8608 94.5215 86.9182 85.4254 78.7039C84.706 78.0541 85.3557 77.1724 86.2143 77.6829C96.053 83.3911 108.189 86.8486 120.742 86.8486C129.212 86.8486 138.517 85.0851 147.08 81.4652C148.356 80.8851 149.446 82.3005 148.193 83.2287Z" fill="#F9F9F9"/>
<path fill-rule="evenodd" clip-rule="evenodd" d="M151.372 79.6089C150.398 78.3558 144.922 79.0055 142.439 79.3072C141.696 79.4 141.58 78.7503 142.253 78.263C146.615 75.2 153.786 76.0818 154.621 77.1028C155.456 78.147 154.389 85.3171 150.305 88.7514C149.678 89.2851 149.075 89.0066 149.354 88.3105C150.282 86.0133 152.347 80.8387 151.372 79.6089Z" fill="#F9F9F9"/>
</svg>
