<svg width="240" height="141" viewBox="0 0 240 141" fill="none" xmlns="http://www.w3.org/2000/svg">
<g clip-path="url(#clip0_147_268)">
<path d="M148.638 71.0002L133.232 98.0178H88V43.9817H133.073L148.638 71.0002ZM121.654 53.4016C118.473 53.4016 115.894 55.9802 115.894 59.1614C115.894 61.5785 117.382 63.6461 119.49 64.5012L117.092 73.3411C116.435 73.1765 115.751 73.0813 115.044 73.0813C114.338 73.0813 113.652 73.1683 112.996 73.3313L110.6 64.5012C112.709 63.6449 114.196 61.5773 114.196 59.1614C114.196 55.9802 111.618 53.4016 108.437 53.4016C105.256 53.4018 102.677 55.9804 102.677 59.1614C102.677 62.3424 105.256 64.9219 108.437 64.9221C108.712 64.9221 108.987 64.9014 109.255 64.8635L111.674 73.7795C110.785 74.1655 109.977 74.6992 109.277 75.3499L103.235 69.4856C103.66 68.8568 103.908 68.0974 103.908 67.2815C103.908 65.1023 102.142 63.3372 99.9639 63.3372C97.786 63.3373 96.0205 65.1024 96.0205 67.2815C96.0207 69.4593 97.7861 71.2247 99.9639 71.2249C100.824 71.2249 101.619 70.9503 102.267 70.4836L108.339 76.3782C107.234 77.809 106.575 79.6025 106.575 81.55C106.575 86.2268 110.367 90.0176 115.044 90.0178C119.721 90.0178 123.513 86.227 123.513 81.55C123.513 79.6022 122.854 77.8092 121.748 76.3792L127.821 70.4846C128.469 70.9511 129.263 71.2258 130.123 71.2258C132.301 71.2258 134.067 69.4604 134.067 67.2825C134.067 65.1045 132.302 63.3372 130.124 63.3372C127.946 63.3374 126.181 65.1037 126.181 67.2815C126.181 68.0974 126.428 68.8568 126.854 69.4856L120.808 75.3518C120.109 74.7024 119.302 74.1683 118.414 73.7825L120.833 64.8625C121.102 64.9028 121.376 64.9221 121.654 64.9221C124.835 64.9221 127.415 62.3436 127.415 59.1614C127.415 55.9803 124.835 53.4017 121.654 53.4016Z" fill="#F9F9F9"/>
</g>
<defs>
<clipPath id="clip0_147_268">
<rect width="60.6381" height="60.6381" fill="white" transform="translate(88 40.681)"/>
</clipPath>
</defs>
</svg>
