<svg width="61" height="62" viewBox="0 0 61 62" fill="none" xmlns="http://www.w3.org/2000/svg">
<g clip-path="url(#clip0_147_269)">
<path d="M60.6377 31.0002L45.2324 58.0178H0V3.98169H45.0732L60.6377 31.0002ZM33.6543 13.4016C30.4732 13.4016 27.8936 15.9802 27.8936 19.1614C27.8936 21.5785 29.3823 23.6461 31.4902 24.5012L29.0918 33.3411C28.4346 33.1765 27.7509 33.0813 27.0439 33.0813C26.3377 33.0813 25.6519 33.1683 24.9961 33.3313L22.5996 24.5012C24.7088 23.6449 26.1963 21.5773 26.1963 19.1614C26.1963 15.9802 23.6177 13.4016 20.4365 13.4016C17.2556 13.4018 14.6768 15.9804 14.6768 19.1614C14.6768 22.3424 17.2556 24.9219 20.4365 24.9221C20.7124 24.9221 20.9873 24.9014 21.2549 24.8635L23.6738 33.7795C22.7854 34.1655 21.9765 34.6992 21.2773 35.3499L15.2354 29.4856C15.6605 28.8568 15.9081 28.0974 15.9082 27.2815C15.9082 25.1023 14.1419 23.3372 11.9639 23.3372C9.78598 23.3373 8.02051 25.1024 8.02051 27.2815C8.02067 29.4593 9.78608 31.2247 11.9639 31.2249C12.8237 31.2249 13.6188 30.9503 14.2666 30.4836L20.3389 36.3782C19.2336 37.809 18.5752 39.6025 18.5752 41.55C18.5752 46.2268 22.3672 50.0176 27.0439 50.0178C31.7209 50.0178 35.5127 46.227 35.5127 41.55C35.5127 39.6022 34.854 37.8092 33.748 36.3792L39.8213 30.4846C40.469 30.9511 41.2634 31.2258 42.123 31.2258C44.301 31.2258 46.0673 29.4604 46.0674 27.2825C46.0674 25.1045 44.302 23.3372 42.124 23.3372C39.9462 23.3374 38.1807 25.1037 38.1807 27.2815C38.1807 28.0974 38.4284 28.8568 38.8535 29.4856L32.8076 35.3518C32.1089 34.7024 31.3015 34.1683 30.4141 33.7825L32.833 24.8625C33.1019 24.9028 33.376 24.9221 33.6543 24.9221C36.8354 24.9221 39.415 22.3436 39.415 19.1614C39.415 15.9803 36.8354 13.4017 33.6543 13.4016Z" fill="#F9F9F9"/>
</g>
<defs>
<clipPath id="clip0_147_269">
<rect width="60.6381" height="60.6381" fill="white" transform="translate(0 0.680969)"/>
</clipPath>
</defs>
</svg>
