<svg width="240" height="142" viewBox="0 0 240 142" fill="none" xmlns="http://www.w3.org/2000/svg">
<g clip-path="url(#clip0_147_296)">
<path d="M96.4219 68.358C95.6387 67.8308 93.5811 67.6057 92.0855 68.0089C92.0052 66.5189 91.2362 65.2631 89.8308 64.1674L89.3107 63.8183L88.964 64.3422C88.2824 65.3767 87.9951 66.7555 88.0967 68.0089C88.177 68.7812 88.4454 69.6489 88.964 70.2787C87.0171 71.4082 85.2223 71.1517 77.2742 71.1517H65.0031C64.9675 72.9466 65.2558 76.3986 67.451 79.209C67.6937 79.5196 67.9593 79.8198 68.248 80.1091C70.0329 81.8963 72.7298 83.2072 76.7622 83.2106C82.9144 83.2163 88.1851 79.8906 91.3916 71.8504C92.4465 71.8675 95.2316 72.0394 96.5948 69.4058C96.628 69.3616 96.9415 68.7076 96.9415 68.7076L96.4219 68.3585V68.358ZM73.0114 66.717H69.5608V70.1676H73.0114V66.717ZM77.469 66.717H74.0184V70.1676H77.469V66.717ZM81.927 66.717H78.4764V70.1676H81.927V66.717ZM86.385 66.717H82.9344V70.1676H86.385V66.717ZM68.5534 66.717H65.1028V70.1676H68.5534V66.717ZM73.0114 62.3587H69.5608V65.8093H73.0114V62.3587ZM77.469 62.3587H74.0184V65.8093H77.469V62.3587ZM81.927 62.3587H78.4764V65.8093H81.927V62.3587ZM81.927 58H78.4764V61.4506H81.927V58Z" fill="#F9F9F9"/>
<path d="M175.64 77.9152C175.64 78.8148 174.934 79.521 174.015 79.521C173.096 79.521 172.38 78.8148 172.38 77.9152C172.38 77.0156 173.105 76.3288 174.015 76.3288C174.925 76.3288 175.64 77.0351 175.64 77.9152ZM172.787 77.9152C172.787 78.6214 173.309 79.1824 174.025 79.1824C174.741 79.1824 175.234 78.6214 175.234 77.9251C175.234 77.2289 174.721 76.648 174.016 76.648C173.311 76.648 172.787 77.2189 172.787 77.9152H172.787ZM173.764 78.7473H173.397V77.1609C173.541 77.132 173.745 77.1125 174.005 77.1125C174.306 77.1125 174.441 77.1609 174.557 77.2289C174.644 77.2963 174.712 77.4222 174.712 77.577C174.712 77.7513 174.576 77.8867 174.384 77.9446V77.9641C174.537 78.0216 174.625 78.1379 174.673 78.3507C174.721 78.5925 174.75 78.6894 174.79 78.7473H174.393C174.345 78.6894 174.315 78.5445 174.267 78.3602C174.238 78.1864 174.141 78.109 173.938 78.109H173.764V78.7478V78.7473ZM173.773 77.8477H173.947C174.15 77.8477 174.315 77.7803 174.315 77.6159C174.315 77.4706 174.209 77.3732 173.976 77.3732C173.88 77.3732 173.812 77.3832 173.773 77.3937V77.8477Z" fill="#F9F9F9"/>
<path d="M113.311 61.8603C113.084 61.6381 112.811 61.525 112.483 61.525C112.156 61.525 111.875 61.6381 111.656 61.8603C111.437 62.0826 111.329 62.3676 111.329 62.7072V68.3783C110.204 67.4478 108.905 66.9785 107.427 66.9785C105.71 66.9785 104.241 67.5989 103.024 68.8437C101.807 70.0843 101.203 71.5852 101.203 73.3454C101.203 75.1056 101.812 76.6023 103.024 77.8471C104.241 79.0877 105.706 79.7123 107.427 79.7123C109.148 79.7123 110.597 79.092 111.83 77.8471C113.047 76.6189 113.651 75.1185 113.651 73.3454V62.7072C113.651 62.3676 113.539 62.0826 113.311 61.8603ZM111.023 74.8796V74.8881C110.82 75.3702 110.543 75.7934 110.191 76.1539C109.84 76.5187 109.426 76.8036 108.954 77.0174C108.478 77.2311 107.973 77.3361 107.431 77.3361C106.889 77.3361 106.372 77.2311 105.896 77.0174C105.42 76.8036 105.01 76.5187 104.663 76.1582C104.316 75.7977 104.039 75.3745 103.836 74.8924C103.633 74.406 103.529 73.8907 103.529 73.3454C103.529 72.8002 103.633 72.2848 103.836 71.7985C104.039 71.3121 104.316 70.8932 104.663 70.5327C105.011 70.1722 105.425 69.8872 105.896 69.6735C106.372 69.4598 106.881 69.3548 107.431 69.3548C107.981 69.3548 108.478 69.4598 108.954 69.6735C109.43 69.8872 109.84 70.1722 110.191 70.537C110.543 70.9017 110.82 71.3249 111.023 71.8027C111.226 72.2848 111.329 72.7964 111.329 73.3412C111.329 73.8859 111.226 74.4017 111.023 74.8796Z" fill="#F9F9F9"/>
<path d="M164.731 70.9019C164.429 70.1472 163.969 69.4642 163.365 68.8519L163.357 68.8477C162.128 67.6071 160.658 66.9825 158.954 66.9825C157.25 66.9825 155.768 67.6028 154.551 68.8477C153.334 70.0883 152.73 71.5892 152.73 73.3494C152.73 75.1096 153.339 76.6062 154.551 77.8511C155.768 79.0917 157.233 79.7162 158.954 79.7162C160.518 79.7162 161.871 79.2009 163.022 78.1698C163.245 77.9351 163.357 77.6502 163.357 77.3186C163.357 76.9871 163.25 76.6941 163.03 76.4718C162.811 76.2495 162.534 76.1364 162.203 76.1364C161.913 76.145 161.656 76.2414 161.437 76.4342C161.09 76.7358 160.713 76.9667 160.304 77.1177C159.894 77.2688 159.447 77.3443 158.959 77.3443C158.528 77.3443 158.115 77.2773 157.722 77.1391C157.328 77.0009 156.96 76.8118 156.633 76.5649C156.302 76.3174 156.017 76.0244 155.772 75.6762C155.528 75.3323 155.342 74.9509 155.218 74.532H164.02C164.347 74.532 164.62 74.419 164.848 74.1967C165.076 73.9744 165.187 73.6894 165.187 73.3498C165.187 72.4697 165.033 71.6523 164.732 70.9019H164.731ZM155.209 72.1677C155.329 71.7525 155.511 71.3711 155.755 71.0235C156 70.6796 156.289 70.3823 156.62 70.1348C156.956 69.8874 157.319 69.6988 157.721 69.5606C158.122 69.4224 158.531 69.3554 158.954 69.3554C159.377 69.3554 159.786 69.4224 160.183 69.5606C160.58 69.6988 160.945 69.8874 161.271 70.1348C161.603 70.3823 161.892 70.6753 162.136 71.0235C162.384 71.3673 162.571 71.7487 162.699 72.1677H155.209H155.209Z" fill="#F9F9F9"/>
<path d="M175.548 67.7789C175.341 67.5737 175.08 67.4142 174.766 67.2968C174.451 67.1795 174.108 67.0997 173.731 67.0537C173.359 67.0076 173.007 66.9867 172.681 66.9867C171.939 66.9867 171.244 67.1083 170.591 67.3515C169.937 67.5946 169.333 67.9423 168.778 68.395V68.1689C168.778 67.8421 168.666 67.5652 168.438 67.3348C168.211 67.1045 167.942 66.9872 167.624 66.9872C167.306 66.9872 167.023 67.1045 166.796 67.3348C166.568 67.5652 166.457 67.8464 166.457 68.1689V78.5349C166.457 78.8617 166.568 79.1386 166.796 79.369C167.023 79.5993 167.297 79.7167 167.624 79.7167C167.951 79.7167 168.215 79.5993 168.438 79.369C168.666 79.1386 168.778 78.8574 168.778 78.5349V73.3498C168.778 72.7964 168.881 72.2768 169.084 71.7905C169.287 71.3041 169.564 70.8852 169.916 70.5247C170.268 70.1642 170.682 69.8792 171.153 69.6736C171.629 69.4641 172.134 69.3591 172.677 69.3591C173.219 69.3591 173.731 69.4556 174.2 69.6441C174.385 69.7282 174.547 69.77 174.688 69.77C174.849 69.77 175.002 69.7405 175.143 69.6778C175.283 69.6151 175.408 69.5311 175.511 69.4223C175.615 69.3135 175.697 69.1877 175.759 69.0409C175.822 68.8984 175.855 68.7431 175.855 68.5754C175.855 68.2487 175.751 67.9846 175.545 67.7789H175.549H175.548Z" fill="#F9F9F9"/>
<path d="M126.959 70.9061C126.656 70.1557 126.205 69.4684 125.597 68.8481C124.369 67.6075 122.9 66.9829 121.194 66.9829C119.489 66.9829 118.008 67.6032 116.791 68.8481C115.575 70.0887 114.971 71.5896 114.971 73.3498C114.971 75.11 115.579 76.6066 116.791 77.8515C118.008 79.0921 119.473 79.7167 121.194 79.7167C122.916 79.7167 124.364 79.0964 125.597 77.8515C126.814 76.6232 127.418 75.1228 127.418 73.3498C127.41 72.4697 127.257 71.6565 126.959 70.9061H126.959ZM124.79 74.8796V74.8882C124.588 75.3703 124.31 75.7935 123.959 76.154C123.607 76.5187 123.193 76.8037 122.721 77.0175C122.25 77.2312 121.741 77.3362 121.199 77.3362C120.657 77.3362 120.139 77.2312 119.664 77.0175C119.188 76.8037 118.778 76.5187 118.431 76.1582C118.083 75.7977 117.806 75.3746 117.603 74.8925C117.4 74.4061 117.297 73.8908 117.297 73.3455C117.297 72.8003 117.4 72.2849 117.603 71.7986C117.806 71.3122 118.083 70.8933 118.431 70.5328C118.778 70.1723 119.192 69.8873 119.664 69.6736C120.139 69.4598 120.649 69.3549 121.199 69.3549C121.749 69.3549 122.245 69.4598 122.721 69.6736C123.197 69.8873 123.607 70.1723 123.959 70.5371C124.31 70.9018 124.588 71.325 124.79 71.8028C124.993 72.2849 125.097 72.7965 125.097 73.3412C125.097 73.886 124.993 74.4018 124.79 74.8796Z" fill="#F9F9F9"/>
<path d="M151.853 68.1647C151.853 68.0056 151.819 67.8545 151.758 67.712C151.695 67.5695 151.613 67.4399 151.509 67.3306C151.406 67.2219 151.282 67.1335 151.141 67.0751C151.001 67.0167 150.848 66.983 150.686 66.983C150.454 66.983 150.247 67.0419 150.065 67.1634L143.42 71.5858V62.7159C143.42 62.3806 143.308 62.0999 143.081 61.869C142.853 61.6387 142.584 61.5214 142.265 61.5214C141.947 61.5214 141.666 61.6387 141.438 61.869C141.21 62.0994 141.099 62.3806 141.099 62.7159V78.5184C141.099 78.8452 141.21 79.1263 141.438 79.361C141.665 79.5956 141.938 79.7129 142.265 79.7129C142.593 79.7129 142.857 79.5956 143.081 79.361C143.308 79.1263 143.42 78.8452 143.42 78.5184V74.4147L144.777 73.5052L149.912 79.4028C150.119 79.608 150.38 79.7086 150.69 79.7086C150.852 79.7086 151.005 79.6792 151.145 79.6165C151.286 79.5576 151.41 79.4697 151.514 79.361C151.617 79.2522 151.7 79.1263 151.762 78.9796C151.824 78.8371 151.857 78.6818 151.857 78.5269C151.857 78.2168 151.75 77.9399 151.534 77.6972L146.754 72.1938L151.409 69.1003C151.707 68.8952 151.852 68.5807 151.852 68.1571V68.1656L151.853 68.1647Z" fill="#F9F9F9"/>
<path d="M132.177 70.5247C132.533 70.1642 132.947 69.8793 133.423 69.6736C133.899 69.4641 134.404 69.3592 134.945 69.3592C135.434 69.3592 135.885 69.4432 136.303 69.6104C136.717 69.7781 137.114 70.0255 137.49 70.348C137.714 70.5281 137.966 70.6202 138.247 70.6202C138.583 70.6202 138.856 70.5072 139.075 70.2806C139.295 70.054 139.402 69.7691 139.402 69.4295C139.402 69.0899 139.27 68.7754 139.001 68.5327C137.858 67.5016 136.506 66.9858 134.945 66.9858C133.228 66.9858 131.759 67.6061 130.543 68.851C129.326 70.0916 128.722 71.5924 128.722 73.3527C128.722 75.1129 129.33 76.6095 130.543 77.8544C131.759 79.095 133.224 79.7195 134.945 79.7195C136.501 79.7195 137.855 79.2042 139.001 78.1726C139.245 77.9213 139.369 77.6321 139.369 77.2968C139.369 76.9614 139.261 76.6722 139.043 76.4499C138.823 76.2276 138.546 76.1146 138.215 76.1146C137.934 76.1231 137.689 76.2067 137.483 76.3658C137.11 76.6926 136.721 76.9358 136.303 77.0992C135.89 77.2626 135.438 77.3423 134.946 77.3423C134.404 77.3423 133.899 77.2374 133.423 77.0279C132.947 76.8185 132.534 76.5335 132.177 76.1773C131.822 75.821 131.54 75.3936 131.337 74.9115C131.134 74.4251 131.031 73.9055 131.031 73.3522C131.031 72.7989 131.134 72.2792 131.337 71.7929C131.54 71.3065 131.821 70.8876 132.177 70.5271V70.5228L132.177 70.5247Z" fill="#F9F9F9"/>
</g>
<defs>
<clipPath id="clip0_147_296">
<rect width="110.854" height="25.2106" fill="white" transform="translate(65 58)"/>
</clipPath>
</defs>
</svg>
