<svg width="111" height="26" viewBox="0 0 111 26" fill="none" xmlns="http://www.w3.org/2000/svg">
<g clip-path="url(#clip0_147_297)">
<path d="M31.4219 10.358C30.6387 9.83079 28.5811 9.60565 27.0855 10.0089C27.0052 8.51894 26.2362 7.26314 24.8308 6.1674L24.3107 5.8183L23.964 6.34218C23.2824 7.37665 22.9951 8.75547 23.0967 10.0089C23.177 10.7812 23.4454 11.6489 23.964 12.2787C22.0171 13.4082 20.2223 13.1517 12.2742 13.1517H0.00308322C-0.032539 14.9466 0.255763 18.3986 2.45104 21.209C2.69375 21.5196 2.95925 21.8198 3.24803 22.1091C5.03294 23.8963 7.72978 25.2072 11.7622 25.2106C17.9144 25.2163 23.1851 21.8906 26.3916 13.8504C27.4465 13.8675 30.2316 14.0394 31.5948 11.4058C31.628 11.3616 31.9415 10.7076 31.9415 10.7076L31.4219 10.3585V10.358ZM8.01144 8.717H4.56083V12.1676H8.01144V8.717ZM12.469 8.717H9.01836V12.1676H12.469V8.717ZM16.927 8.717H13.4764V12.1676H16.927V8.717ZM21.385 8.717H17.9344V12.1676H21.385V8.717ZM3.55343 8.717H0.102825V12.1676H3.55343V8.717ZM8.01144 4.35874H4.56083V7.80934H8.01144V4.35874ZM12.469 4.35874H9.01836V7.80934H12.469V4.35874ZM16.927 4.35874H13.4764V7.80934H16.927V4.35874ZM16.927 0H13.4764V3.45061H16.927V0Z" fill="#F9F9F9"/>
<path d="M110.64 19.9152C110.64 20.8148 109.934 21.521 109.015 21.521C108.096 21.521 107.38 20.8148 107.38 19.9152C107.38 19.0156 108.105 18.3288 109.015 18.3288C109.925 18.3288 110.64 19.0351 110.64 19.9152ZM107.787 19.9152C107.787 20.6214 108.309 21.1824 109.025 21.1824C109.741 21.1824 110.234 20.6214 110.234 19.9251C110.234 19.2289 109.721 18.648 109.016 18.648C108.311 18.648 107.787 19.2189 107.787 19.9152H107.787ZM108.764 20.7473H108.397V19.1609C108.541 19.132 108.745 19.1125 109.005 19.1125C109.306 19.1125 109.441 19.1609 109.557 19.2289C109.644 19.2963 109.712 19.4222 109.712 19.577C109.712 19.7513 109.576 19.8867 109.384 19.9446V19.9641C109.537 20.0216 109.625 20.1379 109.673 20.3507C109.721 20.5925 109.75 20.6894 109.79 20.7473H109.393C109.345 20.6894 109.315 20.5445 109.267 20.3602C109.238 20.1864 109.141 20.109 108.938 20.109H108.764V20.7478V20.7473ZM108.773 19.8477H108.947C109.15 19.8477 109.315 19.7803 109.315 19.6159C109.315 19.4706 109.209 19.3732 108.976 19.3732C108.88 19.3732 108.812 19.3832 108.773 19.3937V19.8477Z" fill="#F9F9F9"/>
<path d="M48.3114 3.86035C48.0839 3.63807 47.8107 3.52502 47.4835 3.52502C47.1562 3.52502 46.8751 3.63807 46.6561 3.86035C46.4367 4.08263 46.3293 4.36761 46.3293 4.70721V10.3783C45.2037 9.44781 43.9047 8.97855 42.427 8.97855C40.7096 8.97855 39.241 9.59885 38.0241 10.8437C36.8073 12.0843 36.2031 13.5852 36.2031 15.3454C36.2031 17.1056 36.8116 18.6023 38.0241 19.8471C39.241 21.0877 40.7058 21.7123 42.427 21.7123C44.1483 21.7123 45.5969 21.092 46.8299 19.8471C48.0468 18.6189 48.651 17.1185 48.651 15.3454V4.70721C48.651 4.36761 48.5393 4.08263 48.3114 3.86035ZM46.023 16.8796V16.8881C45.8202 17.3702 45.5428 17.7934 45.1913 18.1539C44.8399 18.5187 44.4257 18.8036 43.954 19.0174C43.4781 19.2311 42.9732 19.3361 42.4313 19.3361C41.8894 19.3361 41.3721 19.2311 40.8962 19.0174C40.4203 18.8036 40.0104 18.5187 39.6632 18.1582C39.3156 17.7977 39.0387 17.3745 38.8358 16.8924C38.633 16.406 38.5295 15.8907 38.5295 15.3454C38.5295 14.8002 38.633 14.2848 38.8358 13.7985C39.0387 13.3121 39.316 12.8932 39.6632 12.5327C40.0109 12.1722 40.4246 11.8872 40.8962 11.6735C41.3721 11.4598 41.8813 11.3548 42.4313 11.3548C42.9813 11.3548 43.4781 11.4598 43.954 11.6735C44.43 11.8872 44.8399 12.1722 45.1913 12.537C45.5428 12.9017 45.8202 13.3249 46.023 13.8027C46.2258 14.2848 46.3293 14.7964 46.3293 15.3412C46.3293 15.8859 46.2258 16.4017 46.023 16.8796Z" fill="#F9F9F9"/>
<path d="M99.7312 12.9019C99.4292 12.1472 98.9689 11.4642 98.3652 10.8519L98.3572 10.8477C97.128 9.60706 95.6584 8.98248 93.9543 8.98248C92.2501 8.98248 90.7677 9.60278 89.5509 10.8477C88.334 12.0883 87.7303 13.5892 87.7303 15.3494C87.7303 17.1096 88.3388 18.6062 89.5509 19.8511C90.7677 21.0917 92.233 21.7162 93.9543 21.7162C95.5178 21.7162 96.871 21.2009 98.0218 20.1698C98.2446 19.9351 98.3572 19.6502 98.3572 19.3186C98.3572 18.9871 98.2498 18.6941 98.0299 18.4718C97.811 18.2495 97.5336 18.1364 97.2025 18.1364C96.9133 18.145 96.6563 18.2414 96.4374 18.4342C96.0897 18.7358 95.7131 18.9667 95.3036 19.1177C94.8937 19.2688 94.4468 19.3443 93.959 19.3443C93.5282 19.3443 93.1145 19.2773 92.7217 19.1391C92.328 19.0009 91.9604 18.8118 91.6331 18.5649C91.3016 18.3174 91.0166 18.0244 90.7725 17.6762C90.5284 17.3323 90.3422 16.9509 90.2182 16.532H99.0202C99.3465 16.532 99.6196 16.419 99.8476 16.1967C100.076 15.9744 100.187 15.6894 100.187 15.3498C100.187 14.4697 100.033 13.6523 99.7322 12.9019H99.7312ZM90.2092 14.1677C90.3293 13.7525 90.5113 13.3711 90.7554 13.0235C91 12.6796 91.2892 12.3823 91.6203 12.1348C91.9556 11.8874 92.3194 11.6988 92.7208 11.5606C93.1217 11.4224 93.5311 11.3554 93.9543 11.3554C94.3775 11.3554 94.7859 11.4224 95.1825 11.5606C95.5801 11.6988 95.9448 11.8874 96.2711 12.1348C96.6027 12.3823 96.8919 12.6753 97.136 13.0235C97.384 13.3673 97.5711 13.7487 97.6993 14.1677H90.2087H90.2092Z" fill="#F9F9F9"/>
<path d="M110.548 9.77893C110.341 9.57375 110.08 9.41416 109.766 9.29685C109.451 9.17953 109.108 9.09973 108.731 9.05366C108.359 9.00759 108.007 8.98669 107.681 8.98669C106.939 8.98669 106.244 9.10828 105.591 9.35147C104.937 9.59465 104.333 9.94232 103.778 10.395V10.1689C103.778 9.8421 103.666 9.5652 103.438 9.33484C103.211 9.10448 102.942 8.98717 102.624 8.98717C102.306 8.98717 102.023 9.10448 101.796 9.33484C101.568 9.5652 101.457 9.84638 101.457 10.1689V20.5349C101.457 20.8617 101.568 21.1386 101.796 21.369C102.023 21.5993 102.297 21.7167 102.624 21.7167C102.951 21.7167 103.215 21.5993 103.438 21.369C103.666 21.1386 103.778 20.8574 103.778 20.5349V15.3498C103.778 14.7964 103.881 14.2768 104.084 13.7905C104.287 13.3041 104.564 12.8852 104.916 12.5247C105.268 12.1642 105.682 11.8792 106.153 11.6736C106.629 11.4641 107.134 11.3591 107.677 11.3591C108.219 11.3591 108.731 11.4556 109.2 11.6441C109.385 11.7282 109.547 11.77 109.688 11.77C109.849 11.77 110.002 11.7405 110.143 11.6778C110.283 11.6151 110.408 11.5311 110.511 11.4223C110.615 11.3135 110.697 11.1877 110.759 11.0409C110.822 10.8984 110.855 10.7431 110.855 10.5754C110.855 10.2487 110.751 9.98459 110.545 9.77893H110.549H110.548Z" fill="#F9F9F9"/>
<path d="M61.9585 12.9061C61.6565 12.1557 61.2052 11.4684 60.5973 10.8481C59.3686 9.60749 57.8995 8.98291 56.1944 8.98291C54.4893 8.98291 53.0083 9.60321 51.7915 10.8481C50.5746 12.0887 49.9709 13.5896 49.9709 15.3498C49.9709 17.11 50.5794 18.6066 51.7915 19.8515C53.0083 21.0921 54.4731 21.7167 56.1944 21.7167C57.9157 21.7167 59.3643 21.0964 60.5973 19.8515C61.8142 18.6232 62.4183 17.1228 62.4183 15.3498C62.4098 14.4697 62.2568 13.6565 61.959 12.9061H61.9585ZM59.7903 16.8796V16.8882C59.5875 17.3703 59.3101 17.7935 58.9587 18.154C58.6072 18.5187 58.193 18.8037 57.7214 19.0175C57.2498 19.2312 56.7406 19.3362 56.1987 19.3362C55.6567 19.3362 55.1395 19.2312 54.6636 19.0175C54.1877 18.8037 53.7778 18.5187 53.4306 18.1582C53.0829 17.7977 52.806 17.3746 52.6032 16.8925C52.4004 16.4061 52.2968 15.8908 52.2968 15.3455C52.2968 14.8003 52.4004 14.2849 52.6032 13.7986C52.806 13.3122 53.0834 12.8933 53.4306 12.5328C53.7782 12.1723 54.1919 11.8873 54.6636 11.6736C55.1395 11.4598 55.6487 11.3549 56.1987 11.3549C56.7487 11.3549 57.2455 11.4598 57.7214 11.6736C58.1973 11.8873 58.6072 12.1723 58.9587 12.5371C59.3101 12.9018 59.5875 13.325 59.7903 13.8028C59.9931 14.2849 60.0967 14.7965 60.0967 15.3412C60.0967 15.886 59.9931 16.4018 59.7903 16.8796Z" fill="#F9F9F9"/>
<path d="M86.8526 10.1647C86.8526 10.0056 86.8194 9.85452 86.7576 9.71203C86.6954 9.56954 86.6128 9.43988 86.5092 9.33064C86.4057 9.22187 86.2817 9.13353 86.1411 9.07511C86.0005 9.01669 85.8476 8.98296 85.6861 8.98296C85.4543 8.98296 85.2473 9.04186 85.0653 9.16345L78.4197 13.5858V4.71589C78.4197 4.38057 78.308 4.09987 78.0805 3.86904C77.853 3.63868 77.5842 3.52136 77.2655 3.52136C76.9468 3.52136 76.6656 3.63868 76.4376 3.86904C76.2101 4.09939 76.0985 4.38057 76.0985 4.71589V20.5184C76.0985 20.8452 76.2101 21.1263 76.4376 21.361C76.6651 21.5956 76.9382 21.7129 77.2655 21.7129C77.5927 21.7129 77.8573 21.5956 78.0805 21.361C78.308 21.1263 78.4197 20.8452 78.4197 20.5184V16.4147L79.7771 15.5052L84.9124 21.4028C85.1195 21.608 85.3802 21.7086 85.6904 21.7086C85.8519 21.7086 86.0048 21.6792 86.1454 21.6165C86.286 21.5576 86.4104 21.4697 86.5135 21.361C86.617 21.2522 86.6997 21.1263 86.7619 20.9796C86.8241 20.8371 86.8569 20.6818 86.8569 20.5269C86.8569 20.2168 86.7496 19.9399 86.5339 19.6972L81.7544 14.1938L86.4095 11.1003C86.7073 10.8952 86.8522 10.5807 86.8522 10.1571V10.1656L86.8526 10.1647Z" fill="#F9F9F9"/>
<path d="M67.1769 12.5247C67.5327 12.1642 67.9468 11.8793 68.4228 11.6736C68.8987 11.4641 69.4036 11.3592 69.9455 11.3592C70.4338 11.3592 70.885 11.4432 71.3029 11.6104C71.7166 11.7781 72.1142 12.0255 72.4903 12.348C72.7136 12.5281 72.9663 12.6202 73.2474 12.6202C73.5828 12.6202 73.8559 12.5072 74.0753 12.2806C74.2947 12.054 74.4021 11.7691 74.4021 11.4295C74.4021 11.0899 74.2696 10.7754 74.0007 10.5327C72.8584 9.50159 71.5057 8.98578 69.9455 8.98578C68.228 8.98578 66.7594 9.60608 65.5426 10.851C64.3257 12.0916 63.722 13.5924 63.722 15.3527C63.722 17.1129 64.3305 18.6095 65.5426 19.8544C66.7594 21.095 68.2242 21.7195 69.9455 21.7195C71.5015 21.7195 72.8546 21.2042 74.0007 20.1726C74.2449 19.9213 74.3693 19.6321 74.3693 19.2968C74.3693 18.9614 74.2615 18.6722 74.0425 18.4499C73.8231 18.2276 73.5462 18.1146 73.2151 18.1146C72.934 18.1231 72.6893 18.2067 72.4827 18.3658C72.1104 18.6926 71.7214 18.9358 71.3034 19.0992C70.8897 19.2626 70.4385 19.3423 69.946 19.3423C69.404 19.3423 68.8991 19.2374 68.4232 19.0279C67.9473 18.8185 67.5336 18.5335 67.1774 18.1773C66.8217 17.821 66.54 17.3936 66.3372 16.9115C66.1344 16.4251 66.0308 15.9055 66.0308 15.3522C66.0308 14.7989 66.1344 14.2792 66.3372 13.7929C66.54 13.3065 66.8212 12.8876 67.1774 12.5271V12.5228L67.1769 12.5247Z" fill="#F9F9F9"/>
</g>
<defs>
<clipPath id="clip0_147_297">
<rect width="110.854" height="25.2106" fill="white"/>
</clipPath>
</defs>
</svg>
