<svg width="104" height="38" viewBox="0 0 104 38" fill="none" xmlns="http://www.w3.org/2000/svg">
<g clip-path="url(#clip0_147_335)">
<path d="M0 29.4015V14.6881H3.35649V16.5522C4.20332 15.0417 6.04749 14.2547 7.70851 14.2547C9.64335 14.2547 11.3352 15.1323 12.1222 16.855C13.2737 14.9202 14.9964 14.2547 16.9003 14.2547C19.5623 14.2547 22.101 15.9483 22.101 19.8488V29.4015H18.7155V20.4219C18.7155 18.6992 17.8378 17.399 15.8722 17.399C14.028 17.399 12.8185 18.8496 12.8185 20.663V29.3997H9.37315V20.4219C9.37315 18.73 8.5227 17.4081 6.52802 17.4081C4.65485 17.4081 3.47436 18.799 3.47436 20.6721V29.4087L0 29.4015Z" fill="#F9F9F9"/>
<path d="M26.3914 29.4016V7.5127H29.9001V29.4016H26.3914Z" fill="#F9F9F9"/>
<path d="M28.4912 37.4128C29.28 37.6323 29.9891 37.7755 31.4941 37.7755C34.2921 37.7755 37.5923 36.1979 38.461 31.7697L42.0477 14.0153H47.3807L48.0317 11.0613H42.6443L43.3696 7.53261C43.9246 4.79265 45.4405 3.40364 47.874 3.40364C48.5069 3.40364 48.3292 3.45803 48.8931 3.56502L49.6729 0.540368C48.9221 0.315514 48.2494 0.181326 46.7842 0.181326C45.2374 0.158068 43.7271 0.652745 42.4938 1.58666C41.1284 2.64203 40.2271 4.19243 39.8156 6.19436L38.8055 11.0613H34.0364L33.6465 14.0172H38.2161L34.9231 30.4333C34.5604 32.2956 33.5014 34.5224 30.4623 34.5224C29.7732 34.5224 30.0235 34.4698 29.3997 34.3682L28.4912 37.4128Z" fill="#F9F9F9"/>
<path d="M50.5397 29.2818H47.0327L51.8399 7.19708H55.3469L50.5397 29.2818Z" fill="#F9F9F9"/>
<path d="M68.0347 15.6111C64.9739 13.4693 60.8065 13.8905 58.2361 16.6012C55.6656 19.3119 55.4664 23.4958 57.7675 26.4385L60.065 24.7521C58.9246 23.3373 58.693 21.3953 59.4687 19.752C60.2444 18.1087 61.891 17.0532 63.708 17.0346V18.8298L68.0347 15.6111Z" fill="#F9F9F9"/>
<path d="M59.3286 27.9235C62.3894 30.0653 66.5568 29.6441 69.1272 26.9334C71.6976 24.2227 71.8969 20.0389 69.5958 17.0961L67.2983 18.7825C68.4387 20.1973 68.6703 22.1393 67.8946 23.7826C67.1189 25.4259 65.4723 26.4814 63.6552 26.5001V24.7049L59.3286 27.9235Z" fill="#F9F9F9"/>
<path d="M73.9897 14.679H77.8213L78.601 24.734L84.0574 14.679L87.6949 14.7315L89.1239 24.734L93.931 14.679L97.4378 14.7315L90.1629 29.4106H86.6559L84.9658 18.8877L79.3808 29.4106H75.7432L73.9897 14.679Z" fill="#F9F9F9"/>
<path d="M99.5527 14.9401H98.8269V14.688H100.575V14.9455H99.8502V17.0707H99.5527V14.9401Z" fill="#F9F9F9"/>
<path d="M101.014 14.688H101.376L101.833 15.9574C101.892 16.1205 101.946 16.2874 102.002 16.4542H102.019C102.075 16.2874 102.126 16.1205 102.182 15.9574L102.635 14.688H102.998V17.0707H102.715V15.7561C102.715 15.5476 102.738 15.2611 102.753 15.0488H102.738L102.557 15.5929L102.107 16.8278H101.91L101.454 15.5947L101.273 15.0507H101.259C101.275 15.2629 101.299 15.5494 101.299 15.7579V17.0725H101.023L101.014 14.688Z" fill="#F9F9F9"/>
</g>
<defs>
<clipPath id="clip0_147_335">
<rect width="103.274" height="37.8988" fill="white"/>
</clipPath>
</defs>
</svg>
