<svg width="240" height="142" viewBox="0 0 240 142" fill="none" xmlns="http://www.w3.org/2000/svg">
<g clip-path="url(#clip0_147_334)">
<path d="M68 81.4015V66.6881H71.3565V68.5522C72.2033 67.0417 74.0475 66.2547 75.7085 66.2547C77.6434 66.2547 79.3352 67.1323 80.1222 68.855C81.2737 66.9202 82.9964 66.2547 84.9003 66.2547C87.5623 66.2547 90.101 67.9483 90.101 71.8488V81.4015H86.7155V72.4219C86.7155 70.6992 85.8378 69.399 83.8722 69.399C82.028 69.399 80.8185 70.8496 80.8185 72.663V81.3997H77.3732V72.4219C77.3732 70.73 76.5227 69.4081 74.528 69.4081C72.6548 69.4081 71.4744 70.799 71.4744 72.6721V81.4087L68 81.4015Z" fill="#F9F9F9"/>
<path d="M94.3914 81.4016V59.5127H97.9001V81.4016H94.3914Z" fill="#F9F9F9"/>
<path d="M96.4912 89.4128C97.28 89.6323 97.9891 89.7755 99.4941 89.7755C102.292 89.7755 105.592 88.1979 106.461 83.7697L110.048 66.0153H115.381L116.032 63.0613H110.644L111.37 59.5326C111.925 56.7927 113.441 55.4036 115.874 55.4036C116.507 55.4036 116.329 55.458 116.893 55.565L117.673 52.5404C116.922 52.3155 116.249 52.1813 114.784 52.1813C113.237 52.1581 111.727 52.6527 110.494 53.5867C109.128 54.642 108.227 56.1924 107.816 58.1944L106.805 63.0613H102.036L101.646 66.0172H106.216L102.923 82.4333C102.56 84.2956 101.501 86.5224 98.4623 86.5224C97.7732 86.5224 98.0235 86.4698 97.3997 86.3682L96.4912 89.4128Z" fill="#F9F9F9"/>
<path d="M118.54 81.2818H115.033L119.84 59.1971H123.347L118.54 81.2818Z" fill="#F9F9F9"/>
<path d="M136.035 67.6111C132.974 65.4693 128.807 65.8905 126.236 68.6012C123.666 71.3119 123.466 75.4958 125.768 78.4385L128.065 76.7521C126.925 75.3373 126.693 73.3953 127.469 71.752C128.244 70.1087 129.891 69.0532 131.708 69.0346V70.8298L136.035 67.6111Z" fill="#F9F9F9"/>
<path d="M127.329 79.9235C130.389 82.0653 134.557 81.6441 137.127 78.9334C139.698 76.2227 139.897 72.0389 137.596 69.0961L135.298 70.7825C136.439 72.1973 136.67 74.1393 135.895 75.7826C135.119 77.4259 133.472 78.4814 131.655 78.5001V76.7049L127.329 79.9235Z" fill="#F9F9F9"/>
<path d="M141.99 66.679H145.821L146.601 76.734L152.057 66.679L155.695 66.7315L157.124 76.734L161.931 66.679L165.438 66.7315L158.163 81.4106H154.656L152.966 70.8877L147.381 81.4106H143.743L141.99 66.679Z" fill="#F9F9F9"/>
<path d="M167.553 66.9401H166.827V66.688H168.575V66.9455H167.85V69.0707H167.553V66.9401Z" fill="#F9F9F9"/>
<path d="M169.014 66.688H169.376L169.833 67.9574C169.892 68.1205 169.946 68.2874 170.002 68.4542H170.019C170.075 68.2874 170.126 68.1205 170.182 67.9574L170.635 66.688H170.998V69.0707H170.715V67.7561C170.715 67.5476 170.738 67.2611 170.753 67.0488H170.738L170.557 67.5929L170.107 68.8278H169.91L169.454 67.5947L169.273 67.0507H169.259C169.275 67.2629 169.299 67.5494 169.299 67.7579V69.0725H169.023L169.014 66.688Z" fill="#F9F9F9"/>
</g>
<defs>
<clipPath id="clip0_147_334">
<rect width="103.274" height="37.8988" fill="white" transform="translate(68 52)"/>
</clipPath>
</defs>
</svg>
