<svg width="240" height="142" viewBox="0 0 240 142" fill="none" xmlns="http://www.w3.org/2000/svg">
<path d="M102.71 76.2968C101.189 76.2968 99.6403 75.6675 98.6704 74.434V81.0975H95.6244V64.6474H98.3787L98.4838 66.4569C99.4286 65.0664 101.106 64.332 102.707 64.332C105.777 64.332 108.038 66.9041 108.038 70.3144C108.038 73.7247 105.78 76.2983 102.71 76.2968ZM101.767 66.5902C99.9824 66.5902 98.5401 67.9807 98.5401 70.3159C98.5401 72.6511 99.9824 74.0445 101.767 74.0445C103.551 74.0445 104.993 72.654 104.993 70.3188C104.993 67.9836 103.551 66.5902 101.767 66.5902Z" fill="#F9F9F9"/>
<path d="M119.519 75.9844L119.413 74.1748C118.469 75.5653 116.789 76.2998 115.189 76.2983C112.119 76.2983 109.858 73.7276 109.858 70.3174C109.858 66.9071 112.115 64.3349 115.189 64.3364C116.789 64.3364 118.469 65.0768 119.413 66.4614L119.519 64.6518H122.279V75.9844H119.519ZM116.135 66.5917C114.351 66.5917 112.908 67.9821 112.907 70.3174C112.905 72.6526 114.349 74.0445 116.133 74.0445C117.918 74.0445 119.362 72.6541 119.362 70.3188C119.362 67.9836 117.919 66.5917 116.135 66.5917Z" fill="#F9F9F9"/>
<path d="M132.921 75.9858V69.7161C132.921 67.5127 132.162 66.7782 130.771 66.7782C129.327 66.7782 127.753 68.0887 127.753 69.6628V75.9858H124.709V64.6518H127.491L127.623 66.7516C128.384 65.3078 130.088 64.3379 131.821 64.3379C134.837 64.3379 135.967 66.4377 135.967 69.2438V75.9873L132.921 75.9858Z" fill="#F9F9F9"/>
<path d="M147.122 75.9888L147.017 74.1778C146.072 75.5682 144.393 76.3027 142.794 76.3027C139.724 76.3027 137.463 73.7306 137.463 70.3203C137.463 66.91 139.72 64.3394 142.794 64.3394C144.314 64.3394 145.862 64.9702 146.833 66.2022V60.2479H149.878V75.9888H147.122ZM143.738 66.5961C141.961 66.5961 140.512 67.9866 140.512 70.3203C140.512 72.654 141.954 74.0445 143.738 74.0445C145.523 74.0445 146.965 72.6555 146.965 70.3203C146.965 67.9851 145.527 66.5961 143.738 66.5961Z" fill="#F9F9F9"/>
<path d="M161.312 75.9903L161.207 74.1808C160.263 75.5712 158.583 76.3042 156.983 76.3042C153.913 76.3042 151.652 73.7336 151.652 70.3218C151.652 66.9101 153.908 64.3409 156.983 64.3409C158.583 64.3409 160.263 65.0813 161.207 66.4673L161.312 64.6563H164.067V75.9888L161.312 75.9903ZM157.929 66.5976C156.152 66.5976 154.702 67.9881 154.701 70.3233C154.699 72.6585 156.144 74.0445 157.927 74.0445C159.71 74.0445 161.155 72.6541 161.155 70.3189C161.155 67.9836 159.713 66.5976 157.929 66.5976Z" fill="#F9F9F9"/>
<path d="M170.809 76.359C169.208 76.3457 167.64 75.9012 166.27 75.0722L166.769 72.9739C167.687 73.5247 169.078 74.234 170.757 74.234C171.964 74.234 172.804 73.8668 172.804 72.922C172.804 72.1091 171.937 71.8203 170.39 71.4531C167.609 70.8489 166.612 69.38 166.612 67.7792C166.612 65.9949 168.003 64.3171 171.072 64.3171C172.935 64.3171 174.563 65.1301 174.923 65.3404L174.424 67.335C173.432 66.7383 172.302 66.4125 171.145 66.3903C169.913 66.3903 169.309 66.8093 169.309 67.492C169.309 68.2516 170.097 68.5937 171.302 68.8824C174.293 69.5118 175.5 70.9022 175.5 72.4245C175.506 74.8634 173.722 76.359 170.809 76.359Z" fill="#F9F9F9"/>
<path d="M74.2965 56.9294H70.7292V64.3364H74.2965V56.9294Z" fill="#F9F9F9"/>
<path d="M74.2965 72.1447H70.7292V79.5516H74.2965V72.1447Z" fill="#F9F9F9"/>
<path d="M74.2965 66.4984H70.7292V69.993H74.2965V66.4984Z" fill="#F9F9F9"/>
<path d="M68.5672 63.02H65V87.6412H68.5672V63.02Z" fill="#F9F9F9"/>
<path d="M79.9087 78.2559H76.3414V85.6629H79.9087V78.2559Z" fill="#F9F9F9"/>
<path d="M79.9087 63.0289H76.3414V70.4358H79.9087V63.0289Z" fill="#F9F9F9"/>
<path d="M79.9087 72.5977H76.3414V76.0924H79.9087V72.5977Z" fill="#F9F9F9"/>
<path d="M85.5195 55H81.9523V79.6212H85.5195V55Z" fill="#F9F9F9"/>
</svg>
