<svg width="111" height="33" viewBox="0 0 111 33" fill="none" xmlns="http://www.w3.org/2000/svg">
<path d="M37.71 21.2968C36.1892 21.2968 34.6403 20.6675 33.6704 19.434V26.0975H30.6244V9.64738H33.3787L33.4838 11.4569C34.4286 10.0664 36.1063 9.33197 37.707 9.33197C40.7767 9.33197 43.0379 11.9041 43.0379 15.3144C43.0379 18.7247 40.7797 21.2983 37.71 21.2968ZM36.7667 11.5902C34.9824 11.5902 33.5401 12.9807 33.5401 15.3159C33.5401 17.6511 34.9824 19.0445 36.7667 19.0445C38.5511 19.0445 39.9934 17.654 39.9934 15.3188C39.9934 12.9836 38.5511 11.5902 36.7667 11.5902Z" fill="#F9F9F9"/>
<path d="M54.5185 20.9844L54.4134 19.1748C53.4686 20.5653 51.7894 21.2998 50.1887 21.2983C47.119 21.2983 44.8578 18.7276 44.8578 15.3174C44.8578 11.9071 47.1145 9.33495 50.1887 9.33643C51.7894 9.33643 53.4686 10.0768 54.4134 11.4614L54.5185 9.65184H57.2787V20.9844H54.5185ZM51.1349 11.5917C49.3505 11.5917 47.9082 12.9821 47.9067 15.3174C47.9053 17.6526 49.349 19.0445 51.1334 19.0445C52.9178 19.0445 54.3615 17.6541 54.3615 15.3188C54.3615 12.9836 52.9192 11.5917 51.1349 11.5917Z" fill="#F9F9F9"/>
<path d="M67.9212 20.9858V14.7161C67.9212 12.5127 67.1616 11.7782 65.7711 11.7782C64.3273 11.7782 62.7533 13.0887 62.7533 14.6628V20.9858H59.7087V9.65182H62.4912L62.6229 11.7516C63.3841 10.3078 65.0885 9.33789 66.821 9.33789C69.8374 9.33789 70.9672 11.4377 70.9672 14.2438V20.9873L67.9212 20.9858Z" fill="#F9F9F9"/>
<path d="M82.122 20.9888L82.0169 19.1778C81.0721 20.5682 79.3929 21.3027 77.7936 21.3027C74.7239 21.3027 72.4628 18.7306 72.4628 15.3203C72.4628 11.91 74.7195 9.33936 77.7936 9.33936C79.3144 9.33936 80.8618 9.97018 81.8333 11.2022V5.24792H84.8778V20.9888H82.122ZM78.7384 11.5961C76.9614 11.5961 75.5117 12.9866 75.5117 15.3203C75.5117 17.654 76.954 19.0445 78.7384 19.0445C80.5227 19.0445 81.965 17.6555 81.965 15.3203C81.965 12.9851 80.5272 11.5961 78.7384 11.5961Z" fill="#F9F9F9"/>
<path d="M96.3124 20.9903L96.2073 19.1808C95.2626 20.5712 93.5833 21.3042 91.9826 21.3042C88.9129 21.3042 86.6517 18.7336 86.6517 15.3218C86.6517 11.9101 88.9085 9.34088 91.9826 9.34088C93.5833 9.34088 95.2626 10.0813 96.2073 11.4673L96.3124 9.65629H99.0667V20.9888L96.3124 20.9903ZM92.9288 11.5976C91.1519 11.5976 89.7022 12.9881 89.7007 15.3233C89.6992 17.6585 91.1445 19.0445 92.9273 19.0445C94.7102 19.0445 96.1555 17.6541 96.1555 15.3189C96.1555 12.9836 94.7132 11.5976 92.9288 11.5976Z" fill="#F9F9F9"/>
<path d="M105.809 21.359C104.208 21.3457 102.64 20.9012 101.27 20.0722L101.769 17.9739C102.687 18.5247 104.078 19.234 105.757 19.234C106.964 19.234 107.804 18.8668 107.804 17.922C107.804 17.1091 106.937 16.8203 105.39 16.4531C102.609 15.8489 101.612 14.38 101.612 12.7792C101.612 10.9949 103.003 9.31714 106.072 9.31714C107.935 9.31714 109.563 10.1301 109.923 10.3404L109.424 12.335C108.432 11.7383 107.302 11.4125 106.145 11.3903C104.913 11.3903 104.309 11.8093 104.309 12.492C104.309 13.2516 105.097 13.5937 106.302 13.8824C109.293 14.5118 110.5 15.9022 110.5 17.4245C110.506 19.8634 108.722 21.359 105.809 21.359Z" fill="#F9F9F9"/>
<path d="M9.29649 1.92944H5.72925V9.33639H9.29649V1.92944Z" fill="#F9F9F9"/>
<path d="M9.29649 17.1447H5.72925V24.5516H9.29649V17.1447Z" fill="#F9F9F9"/>
<path d="M9.29649 11.4984H5.72925V14.993H9.29649V11.4984Z" fill="#F9F9F9"/>
<path d="M3.56724 8.01996H0V32.6412H3.56724V8.01996Z" fill="#F9F9F9"/>
<path d="M14.9087 23.2559H11.3414V30.6629H14.9087V23.2559Z" fill="#F9F9F9"/>
<path d="M14.9087 8.02887H11.3414V15.4358H14.9087V8.02887Z" fill="#F9F9F9"/>
<path d="M14.9087 17.5977H11.3414V21.0924H14.9087V17.5977Z" fill="#F9F9F9"/>
<path d="M20.5195 0H16.9523V24.6212H20.5195V0Z" fill="#F9F9F9"/>
</svg>
