<svg width="102" height="46" viewBox="0 0 102 46" fill="none" xmlns="http://www.w3.org/2000/svg">
<path d="M6.37268 36.6583H1.42689V31.6841H6.64177C8.54997 31.6841 9.50502 32.5368 9.50502 34.2101C9.50502 35.8425 8.46091 36.6593 6.37363 36.6593M9.92854 31.6263C9.2511 31.0199 8.30268 30.7167 7.08329 30.7167L0 30.7546V42.6549H1.42689L1.41363 37.5887H6.6844C8.00612 37.5887 9.04645 37.2855 9.80537 36.6792C10.5643 36.0728 10.9442 35.2295 10.9442 34.1532C10.9442 33.0769 10.605 32.2336 9.92759 31.6273L9.92854 31.6263ZM19.1635 40.1573C19.0274 40.5467 18.7943 40.895 18.4861 41.1692C17.8465 41.7946 16.8716 42.1044 15.5489 42.1044C14.3646 42.1044 13.4645 41.8012 12.8202 41.1948C12.1759 40.5884 11.868 39.7764 11.868 38.7598C11.868 38.2292 11.9514 37.7602 12.1172 37.35C12.2744 36.9527 12.5216 36.5973 12.8392 36.3115C13.4948 35.7146 14.3987 35.4143 15.5489 35.4143C18.1071 35.4143 19.3701 36.5295 19.3701 38.7589C19.3701 39.2894 19.2971 39.7537 19.1522 40.1554M19.4108 35.7658C18.541 34.9728 17.2534 34.5758 15.548 34.5758C13.9373 34.5758 12.6914 34.9813 11.8131 35.7914C11.02 36.5247 10.624 37.5139 10.624 38.7589C10.624 39.9953 11.0333 40.993 11.8519 41.7529C12.3038 42.1622 12.8306 42.4587 13.4313 42.6416C14.032 42.8245 14.7388 42.9258 15.548 42.9258C17.2534 42.9258 18.5363 42.5336 19.4326 41.7491C20.2256 41.0328 20.6217 40.0398 20.6217 38.7693C20.6217 37.4902 20.2209 36.4925 19.4184 35.7753L19.4108 35.7658ZM30.212 40.5003C30.212 42.111 28.7766 42.9031 25.9067 42.9031C25.0293 42.9031 24.2903 42.8462 23.6896 42.7363C23.0889 42.6264 22.6019 42.4398 22.2267 42.183C21.94 41.9885 21.7036 41.7287 21.5369 41.425C21.3664 41.119 21.2555 40.7144 21.2053 40.236L22.5318 40.2237C22.5318 40.8537 22.7658 41.318 23.2329 41.6164C23.7351 41.9746 24.6229 42.1537 25.8981 42.1537C27.9039 42.1537 28.9073 41.6515 28.9073 40.6453C28.9073 40.0578 28.571 39.6533 27.8983 39.4325C27.7618 39.3899 26.9508 39.2771 25.4633 39.0943C23.9757 38.9114 23.051 38.7465 22.6843 38.6016C21.8922 38.2861 21.4962 37.7204 21.4962 36.9018C21.4816 36.5329 21.574 36.1677 21.7623 35.8501C21.9506 35.5326 22.2267 35.2762 22.5574 35.1121C22.9079 34.951 23.3438 34.825 23.8687 34.735C24.3936 34.6449 25.0009 34.6004 25.6916 34.6004C28.4544 34.6004 29.8358 35.4674 29.8358 37.2012H28.5662C28.5662 35.9828 27.5951 35.3726 25.6528 35.3726C24.6645 35.3726 23.9284 35.4958 23.4423 35.7516C22.9563 36.0074 22.7128 36.3769 22.7128 36.8886C22.7128 37.3661 23.0406 37.711 23.6962 37.9241C24.08 38.035 24.9611 38.1629 26.3416 38.3079C27.5771 38.4187 28.4241 38.576 28.8846 38.7816C29.7619 39.1227 30.211 39.7006 30.211 40.5193L30.212 40.5003ZM35.4572 42.6795L34.9143 42.7553L34.5751 42.7809C33.7053 42.7809 33.0781 42.6549 32.6944 42.4019C32.3106 42.1489 32.1259 41.7083 32.1259 41.0754V35.6464H30.5436V34.8477H32.1164L32.1287 32.282H33.3462V34.8477H35.4667V35.6597L33.3462 35.6464V40.9305C33.3462 41.3237 33.441 41.5956 33.6589 41.7453C33.8768 41.895 34.2406 41.9698 34.7769 41.9698C34.8527 41.9793 34.938 41.9755 35.0327 41.9604C35.1275 41.9452 35.2667 41.913 35.4543 41.8637L35.4676 42.6785L35.4572 42.6795ZM43.8773 40.8679C43.5393 41.1437 43.1541 41.3559 42.7404 41.4942C42.314 41.6392 41.8251 41.7121 41.2718 41.7121C38.725 41.7121 37.4535 40.6699 37.4535 38.5571C37.4535 37.5783 37.7794 36.8118 38.4294 36.2585C39.0794 35.7052 39.9984 35.4285 41.1818 35.4285C42.3737 35.4285 43.2785 35.7071 43.8963 36.2651C44.514 36.8232 44.8229 37.5698 44.8229 38.5068C44.8229 39.5282 44.5074 40.307 43.8773 40.8698M46.0404 34.8439H44.8229L44.8097 36.1865C44.2734 35.6417 43.8906 35.2959 43.6594 35.1518C42.9772 34.7776 42.0961 34.59 41.0141 34.59C39.429 34.59 38.2191 34.9519 37.3853 35.6758C36.5932 36.339 36.1972 37.3026 36.1972 38.5627C36.1972 39.1843 36.2976 39.7404 36.4975 40.2303C36.6974 40.7201 36.9902 41.1351 37.3739 41.4753C38.2105 42.1735 39.392 42.5232 40.9193 42.5232C42.7536 42.5232 44.046 42.021 44.8229 41.0072V42.3972C44.8229 43.283 44.5434 43.9699 43.9854 44.4551C43.4273 44.9402 42.5092 45.1846 41.2311 45.1846C40.0297 45.1846 39.1732 45.0188 38.6729 44.6881C38.2892 44.4342 38.0248 43.9927 37.8808 43.3645H36.6349C36.7713 44.2409 37.1418 44.8757 37.7472 45.267C38.4464 45.718 39.627 45.9435 41.2889 45.9435C44.4686 45.9435 46.0584 44.762 46.0584 42.3981V34.8344L46.0404 34.8439ZM52.6253 35.6351C52.2878 35.578 51.9463 35.5482 51.604 35.546C49.6029 35.546 48.6024 36.6432 48.6024 38.8385V42.6549H47.3991L47.3858 34.8449L48.6033 34.8572V36.25H48.6668C48.8715 35.7004 49.1945 35.2835 49.638 35.0012C50.1231 34.717 50.8469 34.589 51.8096 34.589H52.6272V35.6341L52.6253 35.6351ZM53.7585 38.2558C53.912 37.368 54.2569 36.6811 54.7931 36.1941C55.1437 35.9127 55.5388 35.7014 55.9813 35.5593C56.4237 35.4171 56.9231 35.348 57.4764 35.348C58.5584 35.348 59.4414 35.6445 60.1274 36.2386C60.8134 36.8327 61.1649 37.5044 61.1649 38.2567H53.768M61.2843 35.8473C60.8391 35.4088 60.2952 35.0835 59.6982 34.8989C59.0672 34.6933 58.3301 34.5909 57.4859 34.5909C55.9083 34.5909 54.6851 34.9576 53.8154 35.69C52.9456 36.4224 52.5107 37.421 52.5107 38.684C52.5107 39.947 52.9276 40.9579 53.7632 41.6894C54.6662 42.508 55.9405 42.9173 57.5863 42.9173C58.2419 42.9173 58.8493 42.8415 59.4073 42.6947C59.9654 42.5478 60.4533 42.3346 60.8712 42.0646C61.6045 41.5378 62.0678 40.8897 62.264 40.1166H60.9375C60.4855 41.443 59.3618 42.1195 57.5645 42.1195C56.2949 42.1195 55.319 41.7936 54.6273 41.1399C54.0399 40.5714 53.7462 39.8551 53.7462 38.9645H62.425C62.425 37.6399 62.046 36.6005 61.2615 35.8378L61.2843 35.8473Z" fill="#F9F9F9"/>
<path d="M75.3106 39.4638C75.3106 41.7822 73.4403 42.941 69.7016 42.941C67.4608 42.941 65.8245 42.543 64.7937 41.7424C63.941 41.0858 63.5288 40.0843 63.5288 38.7389H65.0448C65.0448 40.9039 66.5986 41.9859 69.7111 41.9859C71.2024 41.9859 72.2815 41.7642 72.9457 41.3227C73.5085 40.9314 73.7984 40.3184 73.7984 39.4846C73.7984 38.6584 73.4147 38.0795 72.6473 37.7469C72.2114 37.5574 71.1503 37.3424 69.4638 37.0695C67.3414 36.7455 65.9648 36.4224 65.3347 36.0993C64.4232 35.6227 63.9665 34.8136 63.9665 33.6719C63.9665 32.6079 64.3455 31.8148 65.13 31.2956C65.9638 30.7252 67.3973 30.44 69.4259 30.44C73.0926 30.44 74.924 31.6575 74.924 34.0925H73.3967C73.3967 32.2687 72.0352 31.3572 69.3226 31.3572C67.9582 31.3572 66.9596 31.541 66.3286 31.9067C65.7317 32.299 65.4332 32.8731 65.4332 33.633C65.4332 34.4261 65.8169 34.9841 66.5844 35.3081C66.9918 35.4957 68.1951 35.7554 70.1905 36.0889C72.0665 36.3703 73.3313 36.6981 73.9804 37.0742C74.8757 37.5347 75.3229 38.3315 75.3229 39.4656L75.3106 39.4638ZM87.5405 40.6481C86.9733 41.1012 86.3269 41.4453 85.6342 41.6628C84.9255 41.8883 84.1325 42.0011 83.2542 42.0011C81.454 42.0011 80.0138 41.5273 78.9091 40.5514C77.8043 39.5756 77.251 38.2993 77.251 36.6915C77.251 35.0144 77.7987 33.7098 78.8949 32.7737C79.9911 31.8376 81.4531 31.3695 83.2532 31.3695C85.0875 31.3695 86.5296 31.8584 87.5784 32.8381C88.1327 33.3147 88.542 33.8803 88.8073 34.5104C89.0726 35.1404 89.2053 35.8747 89.2053 36.6924C89.2053 38.3599 88.65 39.6788 87.5415 40.649M88.3421 41.4383C89.1266 40.885 89.7065 40.2066 90.0826 39.4268C90.4588 38.647 90.6463 37.7214 90.6463 36.7C90.6463 34.8524 90.0324 33.3706 88.8045 32.2469C88.1479 31.6339 87.3548 31.1781 86.4358 30.8806C85.5167 30.5831 84.4461 30.4334 83.2523 30.4334C80.9338 30.4334 79.1137 30.9953 77.792 32.1199C76.4703 33.2446 75.8099 34.7681 75.8099 36.6924C75.8099 38.5655 76.476 40.0768 77.7996 41.226C79.1232 42.3753 80.9547 42.9504 83.2646 42.9504C84.1675 42.9504 84.9558 42.8889 85.6295 42.7676C86.3031 42.6463 86.8735 42.4578 87.3425 42.2048L89.5672 43.7463L90.4957 42.8936L88.3421 41.4326V41.4383ZM101.919 42.6539H91.6317V30.7394L93.0463 30.7139V41.6571H101.934L101.92 42.652L101.919 42.6539Z" fill="#F9F9F9"/>
<path d="M50.3353 18.664C50.2443 21.9233 50.358 25.2043 50.6764 26.0021C50.9947 26.7999 51.6778 28.3518 54.0266 27.8478C55.9879 27.4271 56.7023 26.6132 57.0111 24.8159L57.736 19.0714M47.5308 2.32673C47.5308 2.32673 36.9001 -2.01837 37.3928 7.86185C37.4876 9.96524 40.4058 23.767 43.8735 19.5982C45.1412 18.0822 46.2867 16.8789 46.2867 16.8789M53.263 1.5337C52.884 1.64929 59.1752 -0.76202 62.7452 3.80763C64.0054 5.41833 62.5557 12.0032 59.0501 17.1897" stroke="#F9F9F9" stroke-width="0.820509" stroke-linecap="round" stroke-linejoin="round"/>
<path d="M59.0491 17.1811C59.0491 17.1811 59.2765 18.302 62.588 17.6189C64.0376 17.3195 63.1564 18.4593 61.6945 19.1424C60.4874 19.7014 57.7814 19.8464 57.736 19.0723C57.6223 17.0731 59.1609 17.6814 59.0491 17.1811ZM59.0491 17.1811C58.9487 16.7301 58.2609 16.2877 57.8061 15.1848C57.4081 14.2212 52.3581 6.83569 59.2083 7.93286C59.4594 7.88075 57.4214 1.41711 51.0108 1.31194C44.6002 1.20677 44.8125 9.19489 44.8125 9.19489" stroke="#F9F9F9" stroke-width="0.820509" stroke-linecap="round" stroke-linejoin="bevel"/>
<path d="M48.5409 17.8634C47.6474 18.861 47.9098 19.0382 46.1248 19.4049C44.318 19.7772 45.3791 20.4405 46.0727 20.6139C46.9131 20.8242 48.8583 21.1217 50.1705 19.2827C50.5703 18.7237 50.1686 17.8293 49.6191 17.6009C49.3538 17.491 48.9985 17.3546 48.5427 17.8634H48.5409Z" stroke="#F9F9F9" stroke-width="0.820509" stroke-linejoin="round"/>
<path d="M48.482 17.8463C48.392 17.2588 48.6753 16.5615 48.9775 15.7429C49.4323 14.5169 50.4935 13.2908 49.6436 9.40241C49.0183 6.50504 44.8134 8.79887 44.8115 9.19207C44.8096 9.58527 45.001 11.1837 44.7414 13.0454C44.4003 15.4747 46.2858 17.5298 48.4583 17.3185" stroke="#F9F9F9" stroke-width="0.820509" stroke-linecap="round" stroke-linejoin="round"/>
<path d="M47.4815 9.1343C47.4626 9.26884 47.7279 9.62699 48.0718 9.67436C48.4157 9.72173 48.7114 9.44223 48.7294 9.30864C48.7474 9.17504 48.483 9.02629 48.1381 8.97702C47.7933 8.92775 47.4986 8.99881 47.4806 9.13335L47.4815 9.1343Z" fill="#F9F9F9" stroke="#F9F9F9" stroke-width="0.273819"/>
<path d="M57.9738 8.86048C57.9928 8.99502 57.7275 9.35316 57.3836 9.40053C57.0396 9.44791 56.744 9.1684 56.7251 9.03481C56.7061 8.90122 56.9714 8.75246 57.3163 8.70509C57.6612 8.65772 57.9558 8.72688 57.9748 8.86142L57.9738 8.86048Z" fill="#F9F9F9" stroke="#F9F9F9" stroke-width="0.136436"/>
<path d="M59.2065 7.93201C59.2634 8.9837 58.9791 9.70188 58.9441 10.8218C58.891 12.4514 59.721 14.3151 58.4703 16.1816" stroke="#F9F9F9" stroke-width="0.820509" stroke-linecap="round" stroke-linejoin="round"/>
</svg>
