<svg width="240" height="141" viewBox="0 0 240 141" fill="none" xmlns="http://www.w3.org/2000/svg">
<path d="M75.3727 83.6583H70.4269V78.6841H75.6418C77.55 78.6841 78.505 79.5368 78.505 81.2101C78.505 82.8425 77.4609 83.6593 75.3736 83.6593M78.9285 78.6263C78.2511 78.0199 77.3027 77.7167 76.0833 77.7167L69 77.7546V89.6549H70.4269L70.4136 84.5887H75.6844C77.0061 84.5887 78.0464 84.2855 78.8054 83.6792C79.5643 83.0728 79.9442 82.2295 79.9442 81.1532C79.9442 80.0769 79.605 79.2336 78.9276 78.6273L78.9285 78.6263ZM88.1635 87.1573C88.0274 87.5467 87.7943 87.895 87.4861 88.1692C86.8465 88.7946 85.8716 89.1044 84.5489 89.1044C83.3646 89.1044 82.4645 88.8012 81.8202 88.1948C81.1759 87.5884 80.868 86.7764 80.868 85.7598C80.868 85.2292 80.9514 84.7602 81.1172 84.35C81.2744 83.9527 81.5216 83.5973 81.8392 83.3115C82.4948 82.7146 83.3987 82.4143 84.5489 82.4143C87.1071 82.4143 88.3701 83.5295 88.3701 85.7589C88.3701 86.2894 88.2971 86.7537 88.1522 87.1554M88.4108 82.7658C87.541 81.9728 86.2534 81.5758 84.548 81.5758C82.9373 81.5758 81.6914 81.9813 80.8131 82.7914C80.02 83.5247 79.624 84.5139 79.624 85.7589C79.624 86.9953 80.0333 87.993 80.8519 88.7529C81.3038 89.1622 81.8306 89.4587 82.4313 89.6416C83.032 89.8245 83.7388 89.9258 84.548 89.9258C86.2534 89.9258 87.5363 89.5336 88.4326 88.7491C89.2256 88.0328 89.6217 87.0398 89.6217 85.7693C89.6217 84.4902 89.2209 83.4925 88.4184 82.7753L88.4108 82.7658ZM99.212 87.5003C99.212 89.111 97.7766 89.9031 94.9067 89.9031C94.0293 89.9031 93.2903 89.8462 92.6896 89.7363C92.0889 89.6264 91.6019 89.4398 91.2267 89.183C90.94 88.9885 90.7036 88.7287 90.5369 88.425C90.3664 88.119 90.2555 87.7144 90.2053 87.236L91.5318 87.2237C91.5318 87.8537 91.7658 88.318 92.2329 88.6164C92.7351 88.9746 93.6229 89.1537 94.8981 89.1537C96.9039 89.1537 97.9073 88.6515 97.9073 87.6453C97.9073 87.0578 97.571 86.6533 96.8983 86.4325C96.7618 86.3899 95.9508 86.2771 94.4633 86.0943C92.9757 85.9114 92.051 85.7465 91.6843 85.6016C90.8922 85.2861 90.4962 84.7204 90.4962 83.9018C90.4816 83.5329 90.574 83.1677 90.7623 82.8501C90.9506 82.5326 91.2267 82.2762 91.5574 82.1121C91.9079 81.951 92.3438 81.825 92.8687 81.735C93.3936 81.6449 94.0009 81.6004 94.6916 81.6004C97.4544 81.6004 98.8358 82.4674 98.8358 84.2012H97.5662C97.5662 82.9828 96.5951 82.3726 94.6528 82.3726C93.6645 82.3726 92.9284 82.4958 92.4423 82.7516C91.9563 83.0074 91.7128 83.3769 91.7128 83.8886C91.7128 84.3661 92.0406 84.711 92.6962 84.9241C93.08 85.035 93.9611 85.1629 95.3416 85.3079C96.5771 85.4187 97.4241 85.576 97.8846 85.7816C98.7619 86.1227 99.211 86.7006 99.211 87.5193L99.212 87.5003ZM104.457 89.6795L103.914 89.7553L103.575 89.7809C102.705 89.7809 102.078 89.6549 101.694 89.4019C101.311 89.1489 101.126 88.7083 101.126 88.0754V82.6464H99.5436V81.8477H101.116L101.129 79.282H102.346V81.8477H104.467V82.6597L102.346 82.6464V87.9305C102.346 88.3237 102.441 88.5956 102.659 88.7453C102.877 88.895 103.241 88.9698 103.777 88.9698C103.853 88.9793 103.938 88.9755 104.033 88.9604C104.127 88.9452 104.267 88.913 104.454 88.8637L104.468 89.6785L104.457 89.6795ZM112.877 87.8679C112.539 88.1437 112.154 88.3559 111.74 88.4942C111.314 88.6392 110.825 88.7121 110.272 88.7121C107.725 88.7121 106.453 87.6699 106.453 85.5571C106.453 84.5783 106.779 83.8118 107.429 83.2585C108.079 82.7052 108.998 82.4285 110.182 82.4285C111.374 82.4285 112.279 82.7071 112.896 83.2651C113.514 83.8232 113.823 84.5698 113.823 85.5068C113.823 86.5282 113.507 87.307 112.877 87.8698M115.04 81.8439H113.823L113.81 83.1865C113.273 82.6417 112.891 82.2959 112.659 82.1518C111.977 81.7776 111.096 81.59 110.014 81.59C108.429 81.59 107.219 81.9519 106.385 82.6758C105.593 83.339 105.197 84.3026 105.197 85.5627C105.197 86.1843 105.298 86.7404 105.497 87.2303C105.697 87.7201 105.99 88.1351 106.374 88.4753C107.211 89.1735 108.392 89.5232 109.919 89.5232C111.754 89.5232 113.046 89.021 113.823 88.0072V89.3972C113.823 90.283 113.543 90.9699 112.985 91.4551C112.427 91.9402 111.509 92.1846 110.231 92.1846C109.03 92.1846 108.173 92.0188 107.673 91.6881C107.289 91.4342 107.025 90.9927 106.881 90.3645H105.635C105.771 91.2409 106.142 91.8757 106.747 92.267C107.446 92.718 108.627 92.9435 110.289 92.9435C113.469 92.9435 115.058 91.762 115.058 89.3981V81.8344L115.04 81.8439ZM121.625 82.6351C121.288 82.578 120.946 82.5482 120.604 82.546C118.603 82.546 117.602 83.6432 117.602 85.8385V89.6549H116.399L116.386 81.8449L117.603 81.8572V83.25H117.667C117.871 82.7004 118.195 82.2835 118.638 82.0012C119.123 81.717 119.847 81.589 120.81 81.589H121.627V82.6341L121.625 82.6351ZM122.759 85.2558C122.912 84.368 123.257 83.6811 123.793 83.1941C124.144 82.9127 124.539 82.7014 124.981 82.5593C125.424 82.4171 125.923 82.348 126.476 82.348C127.558 82.348 128.441 82.6445 129.127 83.2386C129.813 83.8327 130.165 84.5044 130.165 85.2567H122.768M130.284 82.8473C129.839 82.4088 129.295 82.0835 128.698 81.8989C128.067 81.6933 127.33 81.5909 126.486 81.5909C124.908 81.5909 123.685 81.9576 122.815 82.69C121.946 83.4224 121.511 84.421 121.511 85.684C121.511 86.947 121.928 87.9579 122.763 88.6894C123.666 89.508 124.941 89.9173 126.586 89.9173C127.242 89.9173 127.849 89.8415 128.407 89.6947C128.965 89.5478 129.453 89.3346 129.871 89.0646C130.605 88.5378 131.068 87.8897 131.264 87.1166H129.937C129.486 88.443 128.362 89.1195 126.564 89.1195C125.295 89.1195 124.319 88.7936 123.627 88.1399C123.04 87.5714 122.746 86.8551 122.746 85.9645H131.425C131.425 84.6399 131.046 83.6005 130.262 82.8378L130.284 82.8473Z" fill="#F9F9F9"/>
<path d="M144.311 86.4638C144.311 88.7822 142.44 89.941 138.702 89.941C136.461 89.941 134.825 89.543 133.794 88.7424C132.941 88.0858 132.529 87.0843 132.529 85.7389H134.045C134.045 87.9039 135.599 88.9859 138.711 88.9859C140.202 88.9859 141.282 88.7642 141.946 88.3227C142.509 87.9314 142.798 87.3184 142.798 86.4846C142.798 85.6584 142.415 85.0795 141.647 84.7469C141.211 84.5574 140.15 84.3424 138.464 84.0695C136.341 83.7455 134.965 83.4224 134.335 83.0993C133.423 82.6227 132.967 81.8136 132.967 80.6719C132.967 79.6079 133.346 78.8148 134.13 78.2956C134.964 77.7252 136.397 77.44 138.426 77.44C142.093 77.44 143.924 78.6575 143.924 81.0925H142.397C142.397 79.2687 141.035 78.3572 138.323 78.3572C136.958 78.3572 135.96 78.541 135.329 78.9067C134.732 79.299 134.433 79.8731 134.433 80.633C134.433 81.4261 134.817 81.9841 135.584 82.3081C135.992 82.4957 137.195 82.7554 139.19 83.0889C141.066 83.3703 142.331 83.6981 142.98 84.0742C143.876 84.5347 144.323 85.3315 144.323 86.4656L144.311 86.4638ZM156.541 87.6481C155.973 88.1012 155.327 88.4453 154.634 88.6628C153.926 88.8883 153.132 89.0011 152.254 89.0011C150.454 89.0011 149.014 88.5273 147.909 87.5514C146.804 86.5756 146.251 85.2993 146.251 83.6915C146.251 82.0144 146.799 80.7098 147.895 79.7737C148.991 78.8376 150.453 78.3695 152.253 78.3695C154.088 78.3695 155.53 78.8584 156.578 79.8381C157.133 80.3147 157.542 80.8803 157.807 81.5104C158.073 82.1404 158.205 82.8747 158.205 83.6924C158.205 85.3599 157.65 86.6788 156.541 87.649M157.342 88.4383C158.127 87.885 158.706 87.2066 159.083 86.4268C159.459 85.647 159.646 84.7214 159.646 83.7C159.646 81.8524 159.032 80.3706 157.804 79.2469C157.148 78.6339 156.355 78.1781 155.436 77.8806C154.517 77.5831 153.446 77.4334 152.252 77.4334C149.934 77.4334 148.114 77.9953 146.792 79.1199C145.47 80.2446 144.81 81.7681 144.81 83.6924C144.81 85.5655 145.476 87.0768 146.8 88.226C148.123 89.3753 149.955 89.9504 152.265 89.9504C153.168 89.9504 153.956 89.8889 154.629 89.7676C155.303 89.6463 155.874 89.4578 156.343 89.2048L158.567 90.7463L159.496 89.8936L157.342 88.4326V88.4383ZM170.919 89.6539H160.632V77.7394L162.046 77.7139V88.6571H170.934L170.92 89.652L170.919 89.6539Z" fill="#F9F9F9"/>
<path d="M119.335 65.664C119.244 68.9233 119.358 72.2043 119.676 73.0021C119.995 73.7999 120.678 75.3518 123.027 74.8478C124.988 74.4271 125.702 73.6132 126.011 71.8159L126.736 66.0714M116.531 49.3267C116.531 49.3267 105.9 44.9816 106.393 54.8619C106.488 56.9652 109.406 70.767 112.874 66.5982C114.141 65.0822 115.287 63.8789 115.287 63.8789M122.263 48.5337C121.884 48.6493 128.175 46.238 131.745 50.8076C133.005 52.4183 131.556 59.0032 128.05 64.1897" stroke="#F9F9F9" stroke-width="0.820509" stroke-linecap="round" stroke-linejoin="round"/>
<path d="M128.049 64.1811C128.049 64.1811 128.277 65.302 131.588 64.6189C133.038 64.3195 132.156 65.4593 130.694 66.1424C129.487 66.7014 126.781 66.8464 126.736 66.0723C126.622 64.0731 128.161 64.6814 128.049 64.1811ZM128.049 64.1811C127.949 63.7301 127.261 63.2877 126.806 62.1848C126.408 61.2212 121.358 53.8357 128.208 54.9329C128.459 54.8808 126.421 48.4171 120.011 48.3119C113.6 48.2068 113.812 56.1949 113.812 56.1949" stroke="#F9F9F9" stroke-width="0.820509" stroke-linecap="round" stroke-linejoin="bevel"/>
<path d="M117.541 64.8634C116.647 65.861 116.91 66.0382 115.125 66.4049C113.318 66.7772 114.379 67.4405 115.073 67.6139C115.913 67.8242 117.858 68.1217 119.17 66.2827C119.57 65.7237 119.169 64.8293 118.619 64.6009C118.354 64.491 117.998 64.3546 117.543 64.8634H117.541Z" stroke="#F9F9F9" stroke-width="0.820509" stroke-linejoin="round"/>
<path d="M117.482 64.8463C117.392 64.2588 117.675 63.5615 117.978 62.7429C118.432 61.5169 119.493 60.2908 118.644 56.4024C118.018 53.505 113.813 55.7989 113.812 56.1921C113.81 56.5853 114.001 58.1837 113.741 60.0454C113.4 62.4747 115.286 64.5298 117.458 64.3185" stroke="#F9F9F9" stroke-width="0.820509" stroke-linecap="round" stroke-linejoin="round"/>
<path d="M116.482 56.1343C116.463 56.2688 116.728 56.627 117.072 56.6744C117.416 56.7217 117.711 56.4422 117.729 56.3086C117.747 56.175 117.483 56.0263 117.138 55.977C116.793 55.9278 116.499 55.9988 116.481 56.1334L116.482 56.1343Z" fill="#F9F9F9" stroke="#F9F9F9" stroke-width="0.273819"/>
<path d="M126.974 55.8605C126.993 55.995 126.727 56.3532 126.384 56.4005C126.04 56.4479 125.744 56.1684 125.725 56.0348C125.706 55.9012 125.971 55.7525 126.316 55.7051C126.661 55.6577 126.956 55.7269 126.975 55.8614L126.974 55.8605Z" fill="#F9F9F9" stroke="#F9F9F9" stroke-width="0.136436"/>
<path d="M128.207 54.932C128.263 55.9837 127.979 56.7019 127.944 57.8218C127.891 59.4514 128.721 61.3151 127.47 63.1816" stroke="#F9F9F9" stroke-width="0.820509" stroke-linecap="round" stroke-linejoin="round"/>
</svg>
