<svg width="61" height="61" viewBox="0 0 61 61" fill="none" xmlns="http://www.w3.org/2000/svg">
<path fill-rule="evenodd" clip-rule="evenodd" d="M24.7465 3.80237C20.5694 3.80237 17.1833 7.081 17.1833 11.1254V16.1952H30.2734V17.6035H11.3655C7.18849 17.6035 3.80237 20.8821 3.80237 24.9265V35.9111C3.80237 39.9555 7.18849 43.234 11.3655 43.234H15.7288V37.0377C15.7288 32.9934 19.115 29.7146 23.2921 29.7146H37.2547C40.7891 29.7146 43.6542 26.9404 43.6542 23.5183V11.1254C43.6542 7.081 40.2682 3.80237 36.0911 3.80237H24.7465ZM23.0012 12.8153C24.447 12.8153 25.6191 11.6804 25.6191 10.2804C25.6191 8.88046 24.447 7.74554 23.0012 7.74554C21.5551 7.74554 20.3831 8.88046 20.3831 10.2804C20.3831 11.6804 21.5551 12.8153 23.0012 12.8153Z" fill="#F9F9F9"/>
<path fill-rule="evenodd" clip-rule="evenodd" d="M36.0908 57.0353C40.2679 57.0353 43.6541 53.7567 43.6541 49.7123V44.6425H30.5639V43.2343H49.4718C53.6489 43.2343 57.0349 39.9555 57.0349 35.9112V24.9266C57.0349 20.8822 53.6489 17.6036 49.4718 17.6036H45.1085V23.7999C45.1085 27.8445 41.7223 31.123 37.5454 31.123H23.5826C20.0481 31.123 17.183 33.8972 17.183 37.3194V49.7123C17.183 53.7567 20.5692 57.0353 24.7461 57.0353H36.0908ZM37.8363 48.0224C36.3902 48.0224 35.2182 49.1572 35.2182 50.5572C35.2182 51.9572 36.3902 53.0921 37.8363 53.0921C39.2821 53.0921 40.4542 51.9572 40.4542 50.5572C40.4542 49.1572 39.2821 48.0224 37.8363 48.0224Z" fill="#F9F9F9"/>
</svg>
