<svg width="240" height="142" viewBox="0 0 240 142" fill="none" xmlns="http://www.w3.org/2000/svg">
<path fill-rule="evenodd" clip-rule="evenodd" d="M114.746 44.8024C110.569 44.8024 107.183 48.081 107.183 52.1254V57.1952H120.273V58.6035H101.366C97.1885 58.6035 93.8024 61.8821 93.8024 65.9265V76.9111C93.8024 80.9555 97.1885 84.234 101.366 84.234H105.729V78.0377C105.729 73.9934 109.115 70.7146 113.292 70.7146H127.255C130.789 70.7146 133.654 67.9404 133.654 64.5183V52.1254C133.654 48.081 130.268 44.8024 126.091 44.8024H114.746ZM113.001 53.8153C114.447 53.8153 115.619 52.6804 115.619 51.2804C115.619 49.8805 114.447 48.7455 113.001 48.7455C111.555 48.7455 110.383 49.8805 110.383 51.2804C110.383 52.6804 111.555 53.8153 113.001 53.8153Z" fill="#F9F9F9"/>
<path fill-rule="evenodd" clip-rule="evenodd" d="M126.091 98.0353C130.268 98.0353 133.654 94.7567 133.654 90.7123V85.6425H120.564V84.2343H139.472C143.649 84.2343 147.035 80.9555 147.035 76.9112V65.9266C147.035 61.8822 143.649 58.6036 139.472 58.6036H135.108V64.7999C135.108 68.8445 131.722 72.123 127.545 72.123H113.583C110.048 72.123 107.183 74.8972 107.183 78.3194V90.7123C107.183 94.7567 110.569 98.0353 114.746 98.0353H126.091ZM127.836 89.0224C126.39 89.0224 125.218 90.1572 125.218 91.5572C125.218 92.9572 126.39 94.0921 127.836 94.0921C129.282 94.0921 130.454 92.9572 130.454 91.5572C130.454 90.1572 129.282 89.0224 127.836 89.0224Z" fill="#F9F9F9"/>
</svg>
