<svg width="240" height="142" viewBox="0 0 240 142" fill="none" xmlns="http://www.w3.org/2000/svg">
<path d="M90.6603 64.1271L88.2396 66.5477C92.274 70.5821 92.274 77.1525 88.2396 81.1869C84.2052 85.2213 77.6348 85.2213 73.6004 81.1869C69.566 77.1525 69.566 70.5821 73.6004 66.5477L80.0555 60.0926L80.8624 59.1705V54.3292L71.0645 64.1271C69.7771 65.4015 68.7551 66.9185 68.0576 68.5904C67.3601 70.2622 67.001 72.0558 67.001 73.8673C67.001 75.6788 67.3601 77.4724 68.0576 79.1443C68.7551 80.8161 69.7771 82.3331 71.0645 83.6076C72.3389 84.895 73.8559 85.917 75.5278 86.6145C77.1996 87.3119 78.9932 87.6711 80.8047 87.6711C82.6163 87.6711 84.4098 87.3119 86.0817 86.6145C87.7535 85.917 89.2706 84.895 90.545 83.6076C96.0779 78.1899 96.0779 69.4294 90.6603 64.1271Z" fill="#F9F9F9"/>
<path d="M85.8189 63.4354C86.8375 63.4354 87.6632 62.6097 87.6632 61.5911C87.6632 60.5726 86.8375 59.7468 85.8189 59.7468C84.8003 59.7468 83.9746 60.5726 83.9746 61.5911C83.9746 62.6097 84.8003 63.4354 85.8189 63.4354Z" fill="#F9F9F9"/>
<path d="M105.486 72.9214H103.591V77.7952H102.177V63.9603H105.635C109.304 63.9603 111.033 65.7415 111.033 68.3186C111.033 71.3581 108.884 72.8779 105.478 72.93L105.486 72.9214ZM105.581 65.2706H103.546V71.612L105.537 71.5599C108.158 71.5078 109.574 70.459 109.574 68.3101C109.574 66.3716 108.211 65.2706 105.59 65.2706H105.581ZM117.436 77.7422L116.597 79.9431C115.653 82.4066 114.702 83.1399 113.295 83.1399C112.509 83.1399 111.933 82.9315 111.304 82.6681L111.722 81.4108C112.194 81.6732 112.717 81.8296 113.295 81.8296C114.082 81.8296 114.658 81.4108 115.391 79.4609L116.073 77.6796L112.143 67.6706H113.612L116.808 76.0557L119.954 67.6706H121.369L117.436 77.7422ZM126.081 65.3227V77.8483H124.667V65.3227H119.793V63.9603H130.954V65.2706H126.08L126.081 65.3227ZM134.937 78.1088C132.107 78.1088 130.01 76.013 130.01 72.7632C130.01 69.5134 132.159 67.3655 135.032 67.3655C137.862 67.3655 139.906 69.4613 139.906 72.7111C139.906 75.9609 137.757 78.1088 134.927 78.1088H134.937ZM134.989 68.6341C132.841 68.6341 131.427 70.3633 131.427 72.7215C131.427 75.185 132.896 76.862 135.042 76.862C137.189 76.862 138.605 75.1328 138.605 72.7746C138.605 70.3112 137.136 68.6341 134.989 68.6341ZM143.428 77.8473H142.065V67.681L143.428 67.4185V69.5674C144.11 68.2571 145.105 67.4185 146.415 67.4185C147.039 67.4237 147.652 67.586 148.196 67.8904L147.83 69.1998C147.412 68.9373 146.836 68.781 146.258 68.781C145.21 68.781 144.214 69.5674 143.375 71.4017V77.8473H143.428ZM153.594 78.1088C150.554 78.1088 148.615 75.9079 148.615 72.7632C148.615 69.5665 150.711 67.3655 153.594 67.3655C154.851 67.3655 155.9 67.68 156.791 68.2561L156.424 69.5134C155.638 68.9894 154.695 68.6749 153.594 68.6749C151.393 68.6749 150.031 70.2998 150.031 72.7111C150.031 75.1745 151.5 76.7985 153.647 76.7985C154.651 76.7939 155.633 76.503 156.477 75.96L156.74 77.2173C155.849 77.7933 154.748 78.1088 153.594 78.1088ZM165.28 77.8473V71.2965C165.28 69.5153 164.547 68.7384 163.131 68.7384C161.978 68.7384 160.825 69.3144 159.986 70.2069V77.9099H158.623V62.9209L159.986 62.6584V69.052C161.033 68.0041 162.396 67.4271 163.497 67.4271C165.488 67.4271 166.694 68.6844 166.694 70.8853V77.8549L165.28 77.8473Z" fill="#F9F9F9"/>
</svg>
