<svg width="114" height="58" viewBox="0 0 114 58" fill="none" xmlns="http://www.w3.org/2000/svg">
<path d="M30.6603 22.1271L28.2396 24.5477C32.274 28.5821 32.274 35.1525 28.2396 39.1869C24.2052 43.2213 17.6348 43.2213 13.6004 39.1869C9.56597 35.1525 9.56597 28.5821 13.6004 24.5477L20.0555 18.0926L20.8624 17.1705V12.3292L11.0645 22.1271C9.77705 23.4015 8.75506 24.9185 8.05758 26.5904C7.3601 28.2622 7.00098 30.0558 7.00098 31.8673C7.00098 33.6788 7.3601 35.4724 8.05758 37.1443C8.75506 38.8161 9.77705 40.3331 11.0645 41.6076C12.3389 42.895 13.8559 43.917 15.5278 44.6145C17.1996 45.3119 18.9932 45.6711 20.8047 45.6711C22.6163 45.6711 24.4098 45.3119 26.0817 44.6145C27.7535 43.917 29.2706 42.895 30.545 41.6076C36.0779 36.1899 36.0779 27.4294 30.6603 22.1271Z" fill="#F9F9F9"/>
<path d="M25.8189 21.4354C26.8375 21.4354 27.6632 20.6097 27.6632 19.5911C27.6632 18.5726 26.8375 17.7468 25.8189 17.7468C24.8003 17.7468 23.9746 18.5726 23.9746 19.5911C23.9746 20.6097 24.8003 21.4354 25.8189 21.4354Z" fill="#F9F9F9"/>
<path d="M45.4861 30.9214H43.5912V35.7952H42.1766V21.9603H45.6349C49.3035 21.9603 51.0326 23.7415 51.0326 26.3186C51.0326 29.3581 48.8838 30.8779 45.4776 30.93L45.4861 30.9214ZM45.5809 23.2706H43.5457V29.612L45.5373 29.5599C48.158 29.5078 49.5735 28.459 49.5735 26.3101C49.5735 24.3716 48.2111 23.2706 45.5904 23.2706H45.5809ZM57.4356 35.7422L56.5971 37.9431C55.6535 40.4066 54.7022 41.1399 53.2952 41.1399C52.5088 41.1399 51.9327 40.9315 51.3036 40.6681L51.7224 39.4108C52.1942 39.6732 52.7172 39.8296 53.2952 39.8296C54.0816 39.8296 54.6577 39.4108 55.391 37.4609L56.0732 35.6796L52.1431 25.6706H53.6117L56.8084 34.0557L59.954 25.6706H61.3686L57.4356 35.7422ZM66.0813 23.3227V35.8483H64.6667V23.3227H59.793V21.9603H70.9541V23.2706H66.0804L66.0813 23.3227ZM74.9373 36.1088C72.1072 36.1088 70.0105 34.013 70.0105 30.7632C70.0105 27.5134 72.1593 25.3655 75.0321 25.3655C77.8622 25.3655 79.9058 27.4613 79.9058 30.7111C79.9058 33.9609 77.757 36.1088 74.9269 36.1088H74.9373ZM74.9894 26.6341C72.8406 26.6341 71.4269 28.3633 71.4269 30.7215C71.4269 33.185 72.8955 34.862 75.0425 34.862C77.1895 34.862 78.605 33.1328 78.605 30.7746C78.605 28.3112 77.1364 26.6341 74.9894 26.6341ZM83.4276 35.8473H82.0651V25.681L83.4276 25.4185V27.5674C84.1098 26.2571 85.1046 25.4185 86.415 25.4185C87.0389 25.4237 87.6515 25.586 88.1962 25.8904L87.8305 27.1998C87.4117 26.9373 86.8356 26.781 86.2577 26.781C85.2098 26.781 84.214 27.5674 83.3755 29.4017V35.8473H83.4276ZM93.5939 36.1088C90.5545 36.1088 88.615 33.9079 88.615 30.7632C88.615 27.5665 90.7108 25.3655 93.5939 25.3655C94.8512 25.3655 95.9001 25.68 96.7907 26.2561L96.424 27.5134C95.6376 26.9894 94.6949 26.6749 93.5939 26.6749C91.393 26.6749 90.0315 28.2998 90.0315 30.7111C90.0315 33.1745 91.5 34.7985 93.647 34.7985C94.6509 34.7939 95.6327 34.503 96.4771 33.96L96.7395 35.2173C95.8489 35.7933 94.748 36.1088 93.5939 36.1088ZM105.28 35.8473V29.2965C105.28 27.5153 104.547 26.7384 103.131 26.7384C101.978 26.7384 100.825 27.3144 99.9856 28.2069V35.9099H98.6231V20.9209L99.9856 20.6584V27.052C101.033 26.0041 102.396 25.4271 103.497 25.4271C105.488 25.4271 106.694 26.6844 106.694 28.8853V35.8549L105.28 35.8473Z" fill="#F9F9F9"/>
</svg>
