<svg width="151" height="32" viewBox="0 0 151 32" fill="none" xmlns="http://www.w3.org/2000/svg">
<path d="M73.5372 24.918H82.6521H91.767" stroke="#F9F9F9" stroke-width="2.09004" stroke-linecap="round"/>
<path d="M75.1628 20.2734L82.478 20.2734L89.7931 20.2734" stroke="#F9F9F9" stroke-opacity="0.75" stroke-width="2.09004" stroke-linecap="round"/>
<path d="M77.0209 15.6289L82.7104 15.6289L88.4 15.6289" stroke="#F9F9F9" stroke-opacity="0.5" stroke-width="2.09004" stroke-linecap="round"/>
<path d="M78.6462 10.9839L82.5941 10.9839L86.5419 10.9839" stroke="#F9F9F9" stroke-opacity="0.25" stroke-width="2.09004" stroke-linecap="round"/>
<path d="M80.272 6.33984L82.5942 6.33984L84.9165 6.33984" stroke="#F9F9F9" stroke-opacity="0.1" stroke-width="2.09004" stroke-linecap="round"/>
<path d="M16.1547 12.8196C15.9971 12.309 15.7796 11.852 15.5023 11.4486C15.2312 11.0389 14.9034 10.689 14.5189 10.3991C14.1407 10.1091 13.7058 9.89166 13.2141 9.74668C12.7225 9.5954 12.1867 9.51976 11.6068 9.51976C10.5667 9.51976 9.6401 9.78135 8.82696 10.3045C8.01382 10.8277 7.37402 11.5967 6.90757 12.6116C6.44742 13.6201 6.21735 14.8493 6.21735 16.2991C6.21735 17.7615 6.44742 19.0001 6.90757 20.0149C7.36772 21.0298 8.00751 21.8019 8.82696 22.3314C9.6464 22.8546 10.5982 23.1162 11.6824 23.1162C12.6657 23.1162 13.5167 22.9271 14.2353 22.5489C14.9602 22.1707 15.518 21.6349 15.9088 20.9415C16.2996 20.2418 16.495 19.4224 16.495 18.4832L17.2893 18.6061H12.0322V15.8641H19.8894V18.1901C19.8894 19.8479 19.5364 21.2819 18.8305 22.4922C18.1245 23.7024 17.1537 24.6353 15.9183 25.2909C14.6828 25.9401 13.2646 26.2647 11.6635 26.2647C9.87962 26.2647 8.31323 25.8645 6.9643 25.0639C5.62168 24.2571 4.57216 23.113 3.81575 21.6317C3.06565 20.1441 2.6906 18.3792 2.6906 16.3369C2.6906 14.7736 2.91122 13.3774 3.35245 12.1483C3.79999 10.9191 4.42403 9.8759 5.22456 9.01864C6.0251 8.15507 6.9643 7.49952 8.04218 7.05198C9.12006 6.59813 10.2925 6.37121 11.5595 6.37121C12.6311 6.37121 13.6301 6.5288 14.5567 6.84397C15.4833 7.15283 16.3059 7.59407 17.0245 8.16768C17.7494 8.74129 18.3451 9.42206 18.8115 10.21C19.278 10.9979 19.5837 11.8678 19.7287 12.8196H16.1547ZM29.5596 26.2837C28.1035 26.2837 26.846 25.9811 25.787 25.376C24.7344 24.7645 23.9244 23.901 23.3571 22.7853C22.7898 21.6633 22.5061 20.3427 22.5061 18.8236C22.5061 17.3297 22.7898 16.0186 23.3571 14.8903C23.9307 13.7556 24.7312 12.8732 25.7587 12.2428C26.7861 11.6062 27.9932 11.2879 29.38 11.2879C30.2751 11.2879 31.1197 11.4328 31.9139 11.7228C32.7145 12.0065 33.4205 12.4477 34.0319 13.0465C34.6496 13.6453 35.135 14.408 35.488 15.3346C35.841 16.2549 36.0175 17.3517 36.0175 18.625V19.6745H24.1135V17.3675H32.7365C32.7302 16.7119 32.5884 16.1289 32.3111 15.6183C32.0337 15.1014 31.6461 14.6949 31.1481 14.3986C30.6564 14.1023 30.0828 13.9542 29.4273 13.9542C28.7276 13.9542 28.113 14.1244 27.5835 14.4648C27.054 14.7989 26.6412 15.2401 26.3449 15.7885C26.0549 16.3306 25.9068 16.9263 25.9005 17.5755V19.5894C25.9005 20.4341 26.0549 21.159 26.3638 21.7641C26.6727 22.3629 27.1045 22.8231 27.6592 23.1446C28.2139 23.4597 28.8631 23.6173 29.6069 23.6173C30.1049 23.6173 30.5556 23.548 30.959 23.4093C31.3624 23.2643 31.7122 23.0532 32.0085 22.7758C32.3048 22.4985 32.5285 22.1549 32.6798 21.7452L35.8756 22.1045C35.6739 22.9492 35.2894 23.6867 34.7221 24.317C34.1611 24.941 33.4425 25.4264 32.5664 25.7731C31.6902 26.1135 30.6879 26.2837 29.5596 26.2837ZM42.3358 17.4904V26H38.9131V11.477H42.1846V13.9447H42.3547C42.6888 13.1316 43.2215 12.4855 43.9527 12.0065C44.6902 11.5274 45.601 11.2879 46.6852 11.2879C47.6874 11.2879 48.5604 11.5022 49.3042 11.9308C50.0543 12.3594 50.6343 12.9803 51.044 13.7935C51.46 14.6066 51.6649 15.5931 51.6586 16.7529V26H48.2358V17.2824C48.2358 16.3117 47.9837 15.5521 47.4794 15.0037C46.9814 14.4553 46.2912 14.1811 45.4087 14.1811C44.8099 14.1811 44.2773 14.3135 43.8108 14.5782C43.3507 14.8367 42.9882 15.2117 42.7235 15.7034C42.4651 16.1951 42.3358 16.7907 42.3358 17.4904ZM61.5675 26.2837C60.1114 26.2837 58.8539 25.9811 57.7949 25.376C56.7423 24.7645 55.9323 23.901 55.365 22.7853C54.7977 21.6633 54.514 20.3427 54.514 18.8236C54.514 17.3297 54.7977 16.0186 55.365 14.8903C55.9386 13.7556 56.7391 12.8732 57.7666 12.2428C58.794 11.6062 60.0011 11.2879 61.3879 11.2879C62.2829 11.2879 63.1276 11.4328 63.9218 11.7228C64.7224 12.0065 65.4283 12.4477 66.0398 13.0465C66.6575 13.6453 67.1429 14.408 67.4959 15.3346C67.8488 16.2549 68.0253 17.3517 68.0253 18.625V19.6745H56.1214V17.3675H64.7444C64.7381 16.7119 64.5963 16.1289 64.3189 15.6183C64.0416 15.1014 63.6539 14.6949 63.156 14.3986C62.6643 14.1023 62.0907 13.9542 61.4351 13.9542C60.7355 13.9542 60.1209 14.1244 59.5914 14.4648C59.0619 14.7989 58.649 15.2401 58.3528 15.7885C58.0628 16.3306 57.9147 16.9263 57.9084 17.5755V19.5894C57.9084 20.4341 58.0628 21.159 58.3717 21.7641C58.6806 22.3629 59.1123 22.8231 59.667 23.1446C60.2217 23.4597 60.871 23.6173 61.6148 23.6173C62.1128 23.6173 62.5634 23.548 62.9669 23.4093C63.3703 23.2643 63.7201 23.0532 64.0164 22.7758C64.3126 22.4985 64.5364 22.1549 64.6877 21.7452L67.8835 22.1045C67.6818 22.9492 67.2973 23.6867 66.73 24.317C66.169 24.941 65.4504 25.4264 64.5742 25.7731C63.6981 26.1135 62.6958 26.2837 61.5675 26.2837ZM99.586 6.63595V26H96.1633V6.63595H99.586ZM103.106 31.4461V11.477H106.472V13.8786H106.67C106.847 13.5256 107.096 13.1505 107.417 12.7534C107.739 12.35 108.174 12.0065 108.722 11.7228C109.27 11.4328 109.97 11.2879 110.821 11.2879C111.943 11.2879 112.955 11.5747 113.856 12.1483C114.764 12.7156 115.482 13.5571 116.012 14.6728C116.548 15.7822 116.816 17.1437 116.816 18.7574C116.816 20.3522 116.554 21.7074 116.031 22.8231C115.508 23.9388 114.795 24.7897 113.894 25.376C112.993 25.9622 111.971 26.2553 110.83 26.2553C109.998 26.2553 109.308 26.1166 108.76 25.8393C108.211 25.5619 107.77 25.2278 107.436 24.837C107.108 24.4399 106.853 24.0649 106.67 23.7119H106.528V31.4461H103.106ZM106.462 18.7385C106.462 19.6777 106.595 20.5003 106.859 21.2063C107.13 21.9122 107.518 22.4638 108.022 22.8609C108.533 23.2517 109.151 23.4471 109.876 23.4471C110.632 23.4471 111.265 23.2454 111.776 22.842C112.287 22.4323 112.671 21.8744 112.93 21.1684C113.194 20.4562 113.327 19.6462 113.327 18.7385C113.327 17.8371 113.197 17.0366 112.939 16.3369C112.681 15.6372 112.296 15.0888 111.785 14.6917C111.275 14.2946 110.638 14.096 109.876 14.096C109.144 14.096 108.523 14.2883 108.013 14.6728C107.502 15.0573 107.115 15.5962 106.85 16.2896C106.591 16.983 106.462 17.7993 106.462 18.7385ZM123.169 17.4904V26H119.747V6.63595H123.094V13.9447H123.264C123.604 13.1253 124.131 12.4792 124.843 12.0065C125.562 11.5274 126.476 11.2879 127.585 11.2879C128.593 11.2879 129.473 11.499 130.223 11.9214C130.973 12.3437 131.553 12.9614 131.963 13.7746C132.379 14.5877 132.587 15.5805 132.587 16.7529V26H129.164V17.2824C129.164 16.3054 128.912 15.5458 128.408 15.0037C127.91 14.4553 127.21 14.1811 126.308 14.1811C125.703 14.1811 125.161 14.3135 124.682 14.5782C124.209 14.8367 123.838 15.2117 123.566 15.7034C123.302 16.1951 123.169 16.7907 123.169 17.4904ZM140.255 26.2931C139.334 26.2931 138.506 26.1292 137.768 25.8014C137.037 25.4674 136.457 24.9757 136.028 24.3264C135.606 23.6772 135.395 22.8767 135.395 21.9249C135.395 21.1054 135.546 20.4278 135.849 19.892C136.151 19.3562 136.564 18.9276 137.087 18.6061C137.61 18.2846 138.2 18.042 138.855 17.8781C139.517 17.7079 140.201 17.585 140.907 17.5093C141.758 17.4211 142.448 17.3423 142.978 17.2729C143.507 17.1973 143.892 17.0838 144.131 16.9326C144.377 16.775 144.5 16.5323 144.5 16.2045V16.1478C144.5 15.4355 144.289 14.884 143.867 14.4931C143.444 14.1023 142.836 13.9069 142.042 13.9069C141.203 13.9069 140.538 14.0897 140.047 14.4553C139.561 14.8209 139.234 15.2527 139.063 15.7507L135.868 15.2968C136.12 14.4143 136.536 13.6769 137.116 13.0843C137.696 12.4855 138.405 12.038 139.243 11.7417C140.081 11.4391 141.008 11.2879 142.023 11.2879C142.723 11.2879 143.419 11.3698 144.112 11.5337C144.806 11.6976 145.439 11.9686 146.013 12.3468C146.587 12.7187 147.047 13.2262 147.393 13.8691C147.746 14.5121 147.923 15.3157 147.923 16.2802V26H144.632V24.005H144.519C144.311 24.4084 144.018 24.7866 143.64 25.1396C143.268 25.4863 142.798 25.7668 142.231 25.9811C141.67 26.1891 141.011 26.2931 140.255 26.2931ZM141.144 23.7781C141.831 23.7781 142.426 23.6425 142.931 23.3715C143.435 23.0941 143.822 22.7285 144.094 22.2747C144.371 21.8208 144.51 21.326 144.51 20.7902V19.0789C144.402 19.1671 144.22 19.2491 143.961 19.3247C143.709 19.4003 143.425 19.4665 143.11 19.5233C142.795 19.58 142.483 19.6304 142.174 19.6745C141.865 19.7187 141.597 19.7565 141.37 19.788C140.86 19.8573 140.403 19.9708 139.999 20.1284C139.596 20.286 139.278 20.5066 139.045 20.7902C138.811 21.0676 138.695 21.4269 138.695 21.8681C138.695 22.4985 138.925 22.9744 139.385 23.2958C139.845 23.6173 140.431 23.7781 141.144 23.7781Z" fill="#F9F9F9"/>
</svg>
