<svg width="23" height="23" viewBox="0 0 23 23" fill="none" xmlns="http://www.w3.org/2000/svg">
<g clip-path="url(#clip0_513_1487)">
<path d="M7.21696 5.54169L11.342 9.20835L7.21696 12.875H5.15446L2.17529 9.20835L5.15446 5.54169H7.21696Z" stroke="#F9F9F9" stroke-width="0.5" stroke-miterlimit="10" stroke-linecap="round" stroke-linejoin="round"/>
<path d="M8.42236 6.61233L13.6336 1.875H14.5503" stroke="#F9F9F9" stroke-width="0.5" stroke-miterlimit="10" stroke-linecap="round" stroke-linejoin="round"/>
<path d="M14.2617 6.61233L9.05046 1.875H8.13379" stroke="#F9F9F9" stroke-width="0.5" stroke-miterlimit="10" stroke-linecap="round" stroke-linejoin="round"/>
<path d="M7.67529 12.4928V18.375L11.342 20.6667L15.0086 18.375V12.468" stroke="#F9F9F9" stroke-width="0.5" stroke-miterlimit="10" stroke-linecap="round" stroke-linejoin="round"/>
<path d="M11.3418 22.0417V20.6667" stroke="#F9F9F9" stroke-width="0.5" stroke-miterlimit="10" stroke-linecap="round" stroke-linejoin="round"/>
<path d="M7.67529 17.4583H15.0086" stroke="#F9F9F9" stroke-width="0.5" stroke-miterlimit="10" stroke-linecap="round" stroke-linejoin="round"/>
<path d="M7.67529 14.7083H15.0086" stroke="#F9F9F9" stroke-width="0.5" stroke-miterlimit="10" stroke-linecap="round" stroke-linejoin="round"/>
<path d="M8.24805 11.9583H14.4355" stroke="#F9F9F9" stroke-width="0.5" stroke-miterlimit="10" stroke-linecap="round" stroke-linejoin="round"/>
<path d="M15.4668 5.54169L11.3418 9.20835L15.4668 12.875H17.5293L20.5085 9.20835L17.5293 5.54169H15.4668Z" stroke="#F9F9F9" stroke-width="0.5" stroke-miterlimit="10" stroke-linecap="round" stroke-linejoin="round"/>
</g>
<defs>
<clipPath id="clip0_513_1487">
<rect width="22" height="22" fill="white" transform="translate(0.800293 0.5)"/>
</clipPath>
</defs>
</svg>
