<svg width="23" height="23" viewBox="0 0 23 23" fill="none" xmlns="http://www.w3.org/2000/svg">
<g clip-path="url(#clip0_513_1541)">
<path d="M11.0557 2.79169L11.9678 4.62502H14.2594L12.4261 6.45835L13.3428 8.75002L11.0511 7.54735L8.75944 8.75002L9.67611 6.45835L7.84277 4.62502H10.1344L11.0557 2.79169Z" stroke="#F9F9F9" stroke-width="0.5" stroke-miterlimit="10" stroke-linecap="round" stroke-linejoin="round"/>
<path d="M16.5514 9.20831L11.0514 11.9583L5.55143 9.20831L4.63477 0.958313H17.4681L16.5514 9.20831Z" stroke="#F9F9F9" stroke-width="0.5" stroke-miterlimit="10" stroke-linecap="round" stroke-linejoin="round"/>
<path d="M17.4681 17.4583H4.63477V22.0416H17.4681V17.4583Z" stroke="#F9F9F9" stroke-width="0.5" stroke-miterlimit="10" stroke-linecap="round" stroke-linejoin="round"/>
<path d="M4.83859 2.79169H2.80176V6.45835L5.41151 7.94977" stroke="#F9F9F9" stroke-width="0.5" stroke-miterlimit="10" stroke-linecap="round" stroke-linejoin="round"/>
<path d="M17.2643 2.79169H19.3012V6.45835L16.6914 7.94977" stroke="#F9F9F9" stroke-width="0.5" stroke-miterlimit="10" stroke-linecap="round" stroke-linejoin="round"/>
<path d="M4.63477 20.2083H17.4681" stroke="#F9F9F9" stroke-width="0.5" stroke-miterlimit="10" stroke-linecap="round" stroke-linejoin="round"/>
<path d="M10.1348 11.5L9.67643 14.7083L6.00977 17.4583H16.0931L12.4264 14.7083L11.9681 11.5" stroke="#F9F9F9" stroke-width="0.5" stroke-miterlimit="10" stroke-linecap="round" stroke-linejoin="round"/>
</g>
<defs>
<clipPath id="clip0_513_1541">
<rect width="22" height="22" fill="white" transform="translate(0.509766 0.5)"/>
</clipPath>
</defs>
</svg>
