<svg width="23" height="23" viewBox="0 0 23 23" fill="none" xmlns="http://www.w3.org/2000/svg">
<g clip-path="url(#clip0_513_1512)">
<path d="M16.5518 3.36462V9.20837L17.9268 7.37504L19.3018 8.75004V3.02087" stroke="#F9F9F9" stroke-width="0.5" stroke-miterlimit="10" stroke-linecap="round" stroke-linejoin="round"/>
<path d="M21.1344 19.2916L13.8011 20.2083L11.0511 22.0416L8.30111 20.2083L0.967773 19.2916V2.79163L8.30111 3.70829L11.0511 5.99996L13.8011 3.70829L21.1344 2.79163V19.2916Z" stroke="#F9F9F9" stroke-width="0.5" stroke-miterlimit="10" stroke-linecap="round" stroke-linejoin="round"/>
<path d="M11.0518 6V22.0417" stroke="#F9F9F9" stroke-width="0.5" stroke-miterlimit="10" stroke-linecap="round" stroke-linejoin="round"/>
<path d="M8.76009 7.83334L2.80176 7.12567" stroke="#F9F9F9" stroke-width="0.5" stroke-miterlimit="10" stroke-linecap="round" stroke-linejoin="round"/>
<path d="M8.76009 9.87661L2.80176 9.16895" stroke="#F9F9F9" stroke-width="0.5" stroke-miterlimit="10" stroke-linecap="round" stroke-linejoin="round"/>
<path d="M8.76009 11.9189L2.80176 11.2122" stroke="#F9F9F9" stroke-width="0.5" stroke-miterlimit="10" stroke-linecap="round" stroke-linejoin="round"/>
<path d="M5.78092 13.6084L2.80176 13.2545" stroke="#F9F9F9" stroke-width="0.5" stroke-miterlimit="10" stroke-linecap="round" stroke-linejoin="round"/>
<path d="M13.3428 11.9189L19.3011 11.2122" stroke="#F9F9F9" stroke-width="0.5" stroke-miterlimit="10" stroke-linecap="round" stroke-linejoin="round"/>
<path d="M13.3428 14.25L16.3219 13.8962" stroke="#F9F9F9" stroke-width="0.5" stroke-miterlimit="10" stroke-linecap="round" stroke-linejoin="round"/>
<path d="M13.3428 7.83333L14.7178 7.67017" stroke="#F9F9F9" stroke-width="0.5" stroke-miterlimit="10" stroke-linecap="round" stroke-linejoin="round"/>
<path d="M13.3428 9.8821L14.7178 9.71893" stroke="#F9F9F9" stroke-width="0.5" stroke-miterlimit="10" stroke-linecap="round" stroke-linejoin="round"/>
</g>
<defs>
<clipPath id="clip0_513_1512">
<rect width="22" height="22" fill="white" transform="translate(0.509766 0.5)"/>
</clipPath>
</defs>
</svg>
